<?xml version="1.0" encoding="UTF-8" standalone="no"?>
<svg
   xmlns:dc="http://purl.org/dc/elements/1.1/"
   xmlns:cc="http://creativecommons.org/ns#"
   xmlns:rdf="http://www.w3.org/1999/02/22-rdf-syntax-ns#"
   xmlns:svg="http://www.w3.org/2000/svg"
   xmlns="http://www.w3.org/2000/svg"
   viewBox="0 0 515.76001 479.38666"
   height="479.38666"
   width="515.76001"
   xml:space="preserve"
   id="svg2"
   version="1.1"><metadata
     id="metadata8"><rdf:RDF><cc:Work
         rdf:about=""><dc:format>image/svg+xml</dc:format><dc:type
           rdf:resource="http://purl.org/dc/dcmitype/StillImage" /></cc:Work></rdf:RDF></metadata><defs
     id="defs6" /><g
     transform="matrix(1.3333333,0,0,-1.3333333,0,479.38667)"
     id="g10"><g
       transform="scale(0.1)"
       id="g12"><path
         id="path14"
         style="fill:#f2f1f7;fill-opacity:1;fill-rule:nonzero;stroke:none"
         d="m 1784.69,3577.68 c -208.64,0 -445.39,-69.82 -719.59,-259 C 546.66,2961 241.828,2649.89 105.773,2339.62 -12.6602,2069.55 -12.5195,1789.55 106.242,1403.36 136.563,1304.77 162.859,1214.6 188.293,1127.43 296.785,755.441 368.461,509.711 534.098,380.391 698.672,251.879 963.68,237.98 1448.8,332.449 c 407.7,79.379 786.3,58.621 1120.33,40.289 272.85,-14.949 508.51,-27.879 676.35,23.782 181.34,55.82 269.33,181.109 285.29,406.261 33.02,465.539 106.63,735.069 165.78,951.619 57.44,210.32 98.94,362.28 64.94,582.02 -50.92,329.08 -346.22,472.88 -658.85,625.13 -102.84,50.08 -209.19,101.86 -309.44,161.47 -60.41,35.91 -122.09,77.9 -187.42,122.36 -227.04,154.53 -488.26,332.3 -821.09,332.3 M 934.27,253.75 c -22.907,0 -44.891,0.57 -66.09,1.711 C 720.398,263.398 610.914,298.828 523.641,366.988 353.68,499.691 281.395,747.52 171.969,1122.66 c -25.41,87.13 -51.688,177.23 -81.9729,275.71 -120.0625,390.41 -120,673.95 0.2109,948.08 137.379,313.28 444.09,626.66 965.253,986.23 l 4.81,-7 -4.81,7 c 721.18,497.57 1186.22,181.07 1559.89,-73.25 65.09,-44.31 126.58,-86.16 186.54,-121.8 99.64,-59.24 205.66,-110.87 308.19,-160.8 316.74,-154.25 615.92,-299.94 668.2,-637.81 34.56,-223.32 -7.34,-376.75 -65.34,-589.09 C 3654,1534.08 3580.63,1265.46 3547.73,801.57 3512.43,304 3116.36,325.73 2568.2,355.781 2235.17,374.039 1857.68,394.738 1452.04,315.762 1236.71,273.828 1069.8,253.75 934.27,253.75" /><path
         id="path16"
         style="fill:#f2f1f7;fill-opacity:1;fill-rule:nonzero;stroke:none"
         d="M 1146.18,3242.22 C 73.8789,2502.41 -26.8945,2003.27 184.027,1317.41 478.664,359.309 442.902,27.75 1536.33,240.648 c 393.99,76.711 767.83,59.274 1087.56,41.832 568.51,-31.011 965.93,-62.011 1001.27,436.239 66.01,930.801 299.1,1093.121 230.63,1535.541 -68.46,442.42 -566.45,551.29 -972.34,792.6 -405.89,241.33 -896.14,775.68 -1737.27,195.36" /><path
         id="path18"
         style="fill:#ffffff;fill-opacity:1;fill-rule:nonzero;stroke:none"
         d="m 3570.44,1833.04 c 32.25,-1.41 58.41,25.86 55.72,58.02 -28.48,341.67 -36.66,557.88 5.16,911.17 -557.47,-35.76 -883.89,-46.24 -1454.14,0 24.68,-341.01 31.6,-562.86 4.86,-911.42 -5.2,-67.87 28.55,-58.07 303.74,-48.27 203.03,7.23 537.48,14.46 1084.66,-9.5" /><path
         id="path20"
         style="fill:#eee4d9;fill-opacity:1;fill-rule:nonzero;stroke:none"
         d="m 2879.57,1855.14 c 180.9,0 407.68,-4.03 691.12,-16.43 13.7,-0.65 27.07,4.74 36.6,14.65 9.55,9.94 14.37,23.51 13.23,37.23 -29.19,350.09 -35.53,564.9 4.37,905.56 -545.93,-34.95 -868.76,-46.26 -1441.59,-0.1 24.23,-336.46 30.98,-559.1 4.39,-905.67 -1.44,-18.79 0.44,-28.63 6.68,-35.11 17.13,-17.78 73.01,-15.57 208.03,-10.23 103.5,4.08 256.04,10.1 477.17,10.1 m 693.2,-27.81 -2.58,0.06 c -629.45,27.56 -979.36,13.75 -1167.34,6.32 -142.63,-5.63 -195.99,-7.73 -216.65,13.7 -10.72,11.12 -11.04,27.64 -9.81,43.83 26.71,348.12 19.72,571 -4.86,910.58 l -0.48,6.6 6.58,-0.54 c 578.56,-46.9 901.75,-35.38 1453.32,0.01 l 6.8,0.43 -0.8,-6.75 c -40.68,-343.6 -34.46,-558.44 -5.14,-910.03 1.41,-16.97 -4.54,-33.75 -16.35,-46.03 -11.19,-11.64 -26.63,-18.18 -42.69,-18.18" /><path
         id="path22"
         style="fill:#444244;fill-opacity:1;fill-rule:nonzero;stroke:none"
         d="m 3575.38,2856.56 c 29.43,1.29 55.94,-21.65 55.94,-54.33 -565.98,-34.3 -881.25,-47.71 -1454.14,0 0,111.42 43.9,-5.17 1398.2,54.33" /><path
         id="path24"
         style="fill:#444244;fill-opacity:1;fill-rule:nonzero;stroke:none"
         d="m 2182.88,2807.45 c 579.6,-48.02 894.85,-33.07 1442.51,0.1 -1.18,11.63 -6.23,22.18 -14.51,30.11 -9.39,8.98 -22.24,13.8 -35.24,13.24 -687.2,-30.2 -1030.67,-15.34 -1215.19,-7.36 -110.12,4.76 -155.68,6.73 -170.03,-7 -5.76,-5.52 -7.28,-14.34 -7.54,-29.09 z m 673.41,-41.99 c -202.56,0 -413.12,8.94 -679.59,31.13 l -5.19,0.43 v 5.21 c 0,17.45 0.84,32.69 11.07,42.49 17.83,17.08 58.26,15.34 178.36,10.14 184.35,-7.97 527.49,-22.81 1214.2,7.35 16.05,0.73 31.95,-5.25 43.57,-16.37 11.78,-11.28 18.27,-26.77 18.27,-43.61 v -5.33 l -5.32,-0.32 c -301.56,-18.28 -532.7,-31.12 -775.37,-31.12" /><path
         id="path26"
         style="fill:#bec0c2;fill-opacity:1;fill-rule:nonzero;stroke:none"
         d="m 3551.68,2808.29 c 20.19,1.38 27.61,0.21 27.11,7.55 -0.97,14.16 0.05,22.07 -7.18,21.58 -20.17,-1.38 -27.59,-0.21 -27.1,-7.55 0.97,-14.17 -0.05,-22.07 7.17,-21.58" /><path
         id="path28"
         style="fill:#ffffff;fill-opacity:1;fill-rule:nonzero;stroke:none"
         d="m 3552.53,2811.3 -2.05,0.88 c -1.08,1.12 -1.03,2.92 0.09,4 l 18.25,17.44 c 1.12,1.08 2.93,1.03 4,-0.1 1.09,-1.12 1.04,-2.92 -0.08,-4 l -18.26,-17.43 -1.95,-0.79" /><path
         id="path30"
         style="fill:#ffffff;fill-opacity:1;fill-rule:nonzero;stroke:none"
         d="m 3571.87,2812.62 -1.66,0.54 -20.43,14.8 c -1.27,0.92 -1.57,2.69 -0.65,3.95 0.92,1.28 2.72,1.55 3.96,0.64 l 20.44,-14.8 c 1.27,-0.92 1.56,-2.69 0.63,-3.96 l -2.29,-1.17" /><path
         id="path32"
         style="fill:#e8b091;fill-opacity:1;fill-rule:nonzero;stroke:none"
         d="m 2384.42,2630.2 c -14.86,0 -26.54,0.14 -35.74,0.53 v 59.04 c 73.09,0.1 122.55,0.8 155.98,0.8 65.99,0 69.55,-2.75 69.55,-18.4 0,-18.19 3.56,-41.15 -17.59,-41.15 -82.1,0 -136.37,-0.82 -172.2,-0.82" /><path
         id="path34"
         style="fill:#e8b091;fill-opacity:1;fill-rule:nonzero;stroke:none"
         d="m 2787.01,2629.86 c -126.41,0 -125.72,3.83 -125.72,25.42 0,16.59 2.53,34.48 24.26,34.48 h 445.06 c 32.72,0 33.51,-58.74 0,-58.74 -166.78,0 -274.3,-1.16 -343.6,-1.16" /><path
         id="path36"
         style="fill:#e8b091;fill-opacity:1;fill-rule:nonzero;stroke:none"
         d="m 3303.79,2630.2 c -65.94,0 -69.5,2.75 -69.5,18.4 0,18.2 -3.57,41.16 17.58,41.16 82.06,0 136.32,0.81 172.16,0.81 65.99,0 69.56,-2.75 69.56,-18.4 0,-18.19 3.55,-41.15 -17.59,-41.15 -82.11,0 -136.38,-0.82 -172.21,-0.82" /><path
         id="path38"
         style="fill:#e8b091;fill-opacity:1;fill-rule:nonzero;stroke:none"
         d="m 3130.61,2547.87 h -445.06 c -32.73,0 -33.52,58.75 0,58.75 h 445.06 c 32.72,0 33.51,-58.75 0,-58.75" /><path
         id="path40"
         style="fill:#e8b091;fill-opacity:1;fill-rule:nonzero;stroke:none"
         d="m 2384.47,2463.91 c -14.88,0 -26.58,0.14 -35.79,0.53 v 59.04 c 73.13,0.09 122.6,0.8 156.03,0.8 65.93,0 69.5,-2.75 69.5,-18.4 v -23.57 c 0,-9.71 -7.87,-17.59 -17.59,-17.59 -82.06,0 -136.32,-0.81 -172.15,-0.81" /><path
         id="path42"
         style="fill:#e8b091;fill-opacity:1;fill-rule:nonzero;stroke:none"
         d="m 3130.61,2464.72 h -445.06 c -32.73,0 -33.52,58.75 0,58.75 166.78,0 274.31,1.15 343.62,1.15 126.4,0 125.7,-3.83 125.7,-25.42 0,-16.59 -2.52,-34.48 -24.26,-34.48" /><path
         id="path44"
         style="fill:#e8b091;fill-opacity:1;fill-rule:nonzero;stroke:none"
         d="m 3303.84,2463.91 c -65.99,0 -69.55,2.75 -69.55,18.4 0,18.19 -3.57,41.16 17.58,41.16 82.11,0 136.38,0.81 172.21,0.81 65.94,0 69.51,-2.75 69.51,-18.4 0,-18.2 3.55,-41.16 -17.59,-41.16 -82.07,0 -136.33,-0.81 -172.16,-0.81" /><path
         id="path46"
         style="fill:#e8b091;fill-opacity:1;fill-rule:nonzero;stroke:none"
         d="m 2384.45,2380.76 c -14.87,0 -26.56,0.14 -35.77,0.54 v 59.02 h 207.94 c 9.72,0 17.59,-7.87 17.59,-17.59 v -23.57 c 0,-9.71 -7.87,-17.58 -17.59,-17.58 -82.08,0 -136.33,-0.82 -172.17,-0.82" /><path
         id="path48"
         style="fill:#e8b091;fill-opacity:1;fill-rule:nonzero;stroke:none"
         d="m 3303.82,2380.76 c -65.97,0 -69.53,2.76 -69.53,18.4 0,18.2 -3.57,41.16 17.58,41.16 82.06,0 136.32,0.81 172.16,0.81 65.99,0 69.56,-2.75 69.56,-18.4 0,-18.19 3.55,-41.15 -17.59,-41.15 -82.08,0 -136.34,-0.82 -172.18,-0.82" /><path
         id="path50"
         style="fill:#e8b091;fill-opacity:1;fill-rule:nonzero;stroke:none"
         d="m 2556.62,2298.43 h -207.94 v 58.75 h 207.94 c 9.72,0 17.59,-7.88 17.59,-17.59 v -23.58 c 0,-9.71 -7.87,-17.58 -17.59,-17.58" /><path
         id="path52"
         style="fill:#e8b091;fill-opacity:1;fill-rule:nonzero;stroke:none"
         d="m 3130.61,2298.43 h -445.06 c -32.73,0 -33.52,58.75 0,58.75 h 445.06 c 27.91,0 24.84,-35.03 24.32,-35.03 -0.04,0 -0.06,0.17 -0.06,0.54 0,-13.4 -10.86,-24.26 -24.26,-24.26" /><path
         id="path54"
         style="fill:#e8b091;fill-opacity:1;fill-rule:nonzero;stroke:none"
         d="m 3303.79,2297.62 c -49.71,0 -63.97,1.56 -67.98,9.04 v 30.61 l -1.57,-0.74 c 0.75,11.41 4.22,20.65 17.63,20.65 82.06,0 136.32,0.81 172.16,0.81 65.99,0 69.56,-2.75 69.56,-18.4 0,-18.19 3.55,-41.16 -17.59,-41.16 -82.11,0 -136.38,-0.81 -172.21,-0.81" /><path
         id="path56"
         style="fill:#e8b091;fill-opacity:1;fill-rule:nonzero;stroke:none"
         d="m 2574.21,2247.06 c -45.92,2.52 -90.04,6.09 -131.31,10.22 -32.32,3.23 -63.84,6.88 -94.22,10.79 v 5.97 c 73.13,0.09 122.6,0.8 156.03,0.8 65.93,0 69.5,-2.75 69.5,-18.4 v -9.38" /><path
         id="path58"
         style="fill:#e8b091;fill-opacity:1;fill-rule:nonzero;stroke:none"
         d="m 2710.8,2243.2 c -16.8,0 -33.51,0.19 -50.07,0.54 -0.46,14.99 7.71,30.29 24.82,30.29 h 358.48 c -106.65,-22.62 -222.01,-30.83 -333.23,-30.83" /><path
         id="path60"
         style="fill:#e8b091;fill-opacity:1;fill-rule:nonzero;stroke:none"
         d="m 3476,2132.14 h -189.05 c 4.01,19.56 7.95,39.11 11.85,58.74 H 3476 c 9.7,0 17.59,-7.87 17.59,-17.58 v -23.57 c 0,-9.72 -7.89,-17.59 -17.59,-17.59 m -192.05,0 h -32.08 c -7.16,0 -13.31,4.28 -16.06,10.41 v 37.92 c 2.75,6.14 8.9,10.41 16.06,10.41 h 45.55 c -3.4,-14.81 -7.95,-34.71 -13.47,-58.74" /><path
         id="path62"
         style="fill:#e8b091;fill-opacity:1;fill-rule:nonzero;stroke:none"
         d="m 3476,1965.85 h -224.13 c -0.16,0 -0.32,0 -0.48,0.01 4.33,19.46 8.64,39.06 12.9,58.73 H 3476 c 9.7,0 17.59,-7.87 17.59,-17.58 v -23.58 c 0,-9.71 -7.89,-17.58 -17.59,-17.58 m -230.6,1.23 c -4.27,1.69 -7.72,5 -9.59,9.18 v 37.92 c 2.75,6.14 8.9,10.41 16.06,10.41 h 7.11 c -4.29,-18.31 -8.83,-37.52 -13.58,-57.51" /><path
         id="path64"
         style="fill:#58857a;fill-opacity:1;fill-rule:nonzero;stroke:none"
         d="m 3163.02,1632.64 c 158.94,123.46 293.65,536.68 278.44,779.01 -15.22,242.33 -259,-101.99 -291.1,-420.49 -32.09,-318.5 12.66,-358.52 12.66,-358.52" /><path
         id="path66"
         style="fill:#76a699;fill-opacity:1;fill-rule:nonzero;stroke:none"
         d="m 3057.02,1153.49 c 16.93,95.43 118.06,342.1 294.99,384.73 211.34,50.92 95.43,-129.4 -23.05,-234.36 -118.5,-104.97 -271.94,-150.37 -271.94,-150.37" /><path
         id="path68"
         style="fill:#76a699;fill-opacity:1;fill-rule:nonzero;stroke:none"
         d="m 3195.18,1606 c 152.63,34.29 381.88,165.84 462.8,349.26 80.93,183.41 -166.91,140.71 -316.95,-47.58 C 3191,1719.4 3195.18,1606 3195.18,1606" /><path
         id="path70"
         style="fill:#58857a;fill-opacity:1;fill-rule:nonzero;stroke:none"
         d="m 3034.54,1326.05 c 25.78,58.5 135.89,270.01 40.46,482.15 -72.93,162.11 -151.57,0.32 -117.43,-167.96 34.15,-168.29 76.97,-314.19 76.97,-314.19" /><path
         id="path72"
         style="fill:#76a699;fill-opacity:1;fill-rule:nonzero;stroke:none"
         d="m 2975.11,1084.51 c 0,0 132.4,408.11 40.03,654.88 -2.08,5.53 6.3,8.56 8.31,3.11 81.16,-216.79 -5.44,-537.45 -33.64,-629.88 117.91,190.95 334.23,1207.63 313.34,1100.34 C 3188.75,1628.74 3018.22,1058 2975.11,1084.51" /><path
         id="path74"
         style="fill:#58857a;fill-opacity:1;fill-rule:nonzero;stroke:none"
         d="m 2995.12,1065.94 c -13.18,8.36 206.44,293.09 306.17,349.7 5.09,2.89 9.5,-4.8 4.4,-7.72 -105.24,-59.71 -310.57,-341.98 -310.57,-341.98" /><path
         id="path76"
         style="fill:#58857a;fill-opacity:1;fill-rule:nonzero;stroke:none"
         d="m 3130.48,1505.07 c -16.69,8.82 227.86,348.39 428.77,450.45 5.26,2.66 9.21,-5.29 4.01,-7.92 -170.89,-86.81 -379.27,-351.6 -426.78,-440.71 -1.19,-2.23 -3.96,-2.95 -6,-1.82" /><path
         id="path78"
         style="fill:#58857a;fill-opacity:1;fill-rule:nonzero;stroke:none"
         d="m 3224.72,1698.99 c 26.46,25.28 96.67,163.95 108.63,200.61 0.76,2.33 3.26,3.61 5.6,2.85 13.21,-4.75 -80.27,-183.28 -108.1,-209.88 -4.25,-4.05 -10.37,2.39 -6.13,6.42" /><path
         id="path80"
         style="fill:#58857a;fill-opacity:1;fill-rule:nonzero;stroke:none"
         d="m 934.953,2143.32 c -158.957,123.47 -293.652,536.69 -278.437,779.02 15.214,242.33 258.988,-101.99 291.082,-420.49 32.101,-318.51 -12.645,-358.53 -12.645,-358.53" /><path
         id="path82"
         style="fill:#76a699;fill-opacity:1;fill-rule:nonzero;stroke:none"
         d="m 1040.94,1664.18 c -16.91,95.42 -118.053,342.09 -294.979,384.73 -211.352,50.92 -95.441,-129.39 23.051,-234.36 118.492,-104.98 271.928,-150.37 271.928,-150.37" /><path
         id="path84"
         style="fill:#76a699;fill-opacity:1;fill-rule:nonzero;stroke:none"
         d="m 902.789,2116.68 c -152.637,34.3 -381.879,165.85 -462.801,349.26 -80.925,183.42 166.914,140.72 316.946,-47.57 150.035,-188.29 145.855,-301.69 145.855,-301.69" /><path
         id="path86"
         style="fill:#58857a;fill-opacity:1;fill-rule:nonzero;stroke:none"
         d="m 1063.42,1836.73 c -25.78,58.51 -135.881,270.01 -40.45,482.16 72.92,162.11 151.57,0.32 117.43,-167.97 -34.15,-168.28 -76.98,-314.19 -76.98,-314.19" /><path
         id="path88"
         style="fill:#76a699;fill-opacity:1;fill-rule:nonzero;stroke:none"
         d="m 1122.86,1595.19 c 0,0 -132.403,408.11 -40.04,654.89 2.09,5.52 -6.29,8.56 -8.3,3.11 -81.161,-216.79 5.44,-537.45 33.64,-629.89 -117.914,190.96 -334.226,1207.64 -313.336,1100.35 60.739,-310.21 226.276,-1024.82 322.506,-1127.69 1.48,-1.57 3.82,-1.82 5.53,-0.77" /><path
         id="path90"
         style="fill:#58857a;fill-opacity:1;fill-rule:nonzero;stroke:none"
         d="m 1102.84,1576.63 c 13.19,8.36 -206.434,293.09 -306.164,349.7 -5.082,2.88 -9.5,-4.8 -4.391,-7.72 77.047,-43.73 239.335,-237.38 304.435,-340.59 1.36,-2.14 4.14,-2.64 6.12,-1.39" /><path
         id="path92"
         style="fill:#58857a;fill-opacity:1;fill-rule:nonzero;stroke:none"
         d="m 969.309,2021.76 c -111.512,209.23 -421.899,471.5 -436.551,442.5 -1.11,-2.19 -0.238,-4.86 1.953,-5.97 170.891,-86.82 379.273,-351.6 426.781,-440.71 2.762,-5.18 10.586,-1 7.817,4.18" /><path
         id="path94"
         style="fill:#58857a;fill-opacity:1;fill-rule:nonzero;stroke:none"
         d="m 873.242,2209.68 c -26.453,25.28 -96.656,163.95 -108.625,200.61 -1.836,5.63 -10.219,2.74 -8.437,-2.75 12.465,-38.22 83.062,-177.64 110.941,-204.28 4.242,-4.06 10.359,2.39 6.121,6.42" /><path
         id="path96"
         style="fill:#ffffff;fill-opacity:1;fill-rule:nonzero;stroke:none"
         d="m 2306.05,2145.4 c -557.02,-146.51 -894.47,-144.83 -1432.425,-0.15 -50.746,13.66 -36.699,-23.22 -36.699,1032.7 551.124,-157.5 908.514,-170.5 1506.094,0 V 2193.3 c 0,-22.5 -15.22,-42.17 -36.97,-47.9" /><path
         id="path98"
         style="fill:#eee4d9;fill-opacity:1;fill-rule:nonzero;stroke:none"
         d="m 842.59,3170.45 c -0.012,-226.86 -0.664,-400.17 -1.188,-539.74 -1.754,-466.75 -1.48,-471.22 29.102,-478.81 1.469,-0.37 3.004,-0.74 4.594,-1.17 541.432,-145.62 875.422,-145.58 1429.512,0.15 19.28,5.08 32.75,22.52 32.75,42.42 v 977.15 c -300.83,-85.36 -537.08,-122.75 -764.85,-121.16 -218.05,1.52 -436.7,37.78 -729.92,121.16 m 742.29,-1140.3 c -221.28,0 -440.96,36.54 -712.724,109.63 -1.519,0.41 -2.98,0.78 -4.383,1.12 -39.503,9.8 -39.503,9.8 -37.703,489.86 0.532,141.09 1.192,316.68 1.192,547.19 v 7.52 l 7.222,-2.07 c 575.456,-164.45 926.616,-164.45 1502.986,0 l 7.21,2.06 V 2193.3 c 0,-25.04 -16.93,-46.99 -41.19,-53.37 -278.23,-73.19 -501.22,-109.78 -722.61,-109.78" /><path
         id="path100"
         style="fill:#444244;fill-opacity:1;fill-rule:nonzero;stroke:none"
         d="m 2281.85,3227.9 c -535.11,-130.3 -871.52,-140.59 -1382.498,-2.2 -31.45,8.52 -62.426,-15.16 -62.426,-47.75 584.844,-165.24 917.184,-162.85 1506.094,0 0,36.31 -31.66,57.14 -61.17,49.95" /><path
         id="path102"
         style="fill:#444244;fill-opacity:1;fill-rule:nonzero;stroke:none"
         d="m 842.789,3182.19 c 572.641,-161.33 909.301,-161.31 1494.401,0.04 -1.03,13.13 -6.85,24.43 -16.63,32.12 -10.43,8.19 -24.39,11.21 -37.36,8.05 -555.41,-135.24 -892.04,-135.77 -1385.329,-2.17 -13.289,3.6 -27.168,0.87 -38.094,-7.5 -9.789,-7.49 -15.839,-18.45 -16.988,-30.54 z M 1585.26,3049.8 c -230.98,-0.01 -460.32,40.89 -749.873,122.7 l -4.125,1.17 v 4.28 c 0,17.31 7.879,33.26 21.629,43.78 13.75,10.52 31.23,13.96 47.941,9.44 491.158,-133.03 826.408,-132.48 1379.678,2.24 16.32,3.96 33.91,0.17 47.05,-10.15 13.62,-10.71 21.12,-26.8 21.12,-45.31 v -4.31 l -4.15,-1.15 C 2048.76,3090.7 1816.19,3049.81 1585.26,3049.8" /><path
         id="path104"
         style="fill:#bec0c2;fill-opacity:1;fill-rule:nonzero;stroke:none"
         d="m 2271.64,3176.18 c 18.97,7 26.42,7.97 23.87,14.87 -4.91,13.32 -6.16,21.2 -12.96,18.68 -18.97,-7 -26.43,-7.97 -23.88,-14.87 4.93,-13.32 6.18,-21.19 12.97,-18.68" /><path
         id="path106"
         style="fill:#ffffff;fill-opacity:1;fill-rule:nonzero;stroke:none"
         d="m 2270.8,3179.19 -1.4,0.37 c -1.36,0.79 -1.83,2.52 -1.05,3.87 l 12.58,21.88 c 0.78,1.35 2.53,1.82 3.87,1.04 1.35,-0.78 1.82,-2.52 1.05,-3.87 l -12.59,-21.87 c -0.52,-0.91 -1.48,-1.42 -2.46,-1.42" /><path
         id="path108"
         style="fill:#ffffff;fill-opacity:1;fill-rule:nonzero;stroke:none"
         d="m 2288.99,3185.9 -0.95,0.17 -23.78,8.44 c -1.47,0.52 -2.25,2.14 -1.73,3.61 0.53,1.47 2.17,2.24 3.62,1.73 l 23.78,-8.44 c 1.48,-0.53 2.25,-2.14 1.73,-3.62 -0.42,-1.16 -1.5,-1.89 -2.67,-1.89" /><path
         id="path110"
         style="fill:#444244;fill-opacity:1;fill-rule:nonzero;stroke:none"
         d="m 1056.81,2693.87 h 18.1 v -64.3 c 0,-27.36 -13.24,-36.48 -32.96,-36.48 -5,0 -11.33,0.88 -15.15,2.35 l 2.21,14.56 c 2.94,-0.88 6.91,-1.77 11.18,-1.77 10.3,0 16.62,4.71 16.62,21.93 v 63.71" /><path
         id="path112"
         style="fill:#444244;fill-opacity:1;fill-rule:nonzero;stroke:none"
         d="m 1131.54,2629.72 c -12.8,0.3 -25.01,-2.51 -25.01,-13.39 0,-7.06 4.56,-10.3 10.3,-10.3 7.21,0 12.51,4.7 14.12,9.86 0.45,1.32 0.59,2.8 0.59,3.97 z m 2.36,-35.02 -1.18,7.94 c -4.85,-5.59 -12.36,-9.55 -21.63,-9.55 -14.42,0 -22.51,10.44 -22.51,21.33 0,18.1 16.04,27.22 42.52,27.07 v 1.17 c 0,4.72 -1.91,12.52 -14.56,12.52 -7.07,0 -14.42,-2.21 -19.28,-5.3 l -3.53,11.77 c 5.3,3.24 14.57,6.32 25.9,6.32 22.95,0 29.57,-14.56 29.57,-30.16 v -25.89 c 0,-6.48 0.29,-12.81 1.03,-17.22 h -16.33" /><path
         id="path114"
         style="fill:#444244;fill-opacity:1;fill-rule:nonzero;stroke:none"
         d="m 1178.31,2666.36 11.63,-36.34 c 2.05,-6.33 3.53,-12.07 4.85,-17.96 1.76,5.89 3.39,11.48 5.3,17.96 l 11.33,36.34 h 19.13 l -27.37,-71.66 h -17.81 l -26.63,71.66 h 19.57" /><path
         id="path116"
         style="fill:#444244;fill-opacity:1;fill-rule:nonzero;stroke:none"
         d="m 1278.64,2629.72 c -12.8,0.3 -25.02,-2.51 -25.02,-13.39 0,-7.06 4.57,-10.3 10.31,-10.3 7.2,0 12.5,4.7 14.12,9.86 0.44,1.32 0.59,2.8 0.59,3.97 z m 2.35,-35.02 -1.17,7.94 c -4.86,-5.59 -12.37,-9.55 -21.63,-9.55 -14.42,0 -22.51,10.44 -22.51,21.33 0,18.1 16.03,27.22 42.52,27.07 v 1.17 c 0,4.72 -1.91,12.52 -14.57,12.52 -7.06,0 -14.42,-2.21 -19.27,-5.3 l -3.53,11.77 c 5.29,3.24 14.56,6.32 25.89,6.32 22.95,0 29.58,-14.56 29.58,-30.16 v -25.89 c 0,-6.48 0.29,-12.81 1.03,-17.22 h -16.34" /><path
         id="path118"
         style="fill:#444244;fill-opacity:1;fill-rule:nonzero;stroke:none"
         d="m 1346.14,2614.42 c 5.89,-3.38 14.72,-6.33 23.98,-6.33 11.63,0 18.1,5.45 18.1,13.54 0,7.5 -5,11.91 -17.65,16.48 -16.33,5.88 -26.78,14.57 -26.78,28.83 0,16.19 13.54,28.55 35.02,28.55 10.74,0 18.68,-2.36 23.83,-5 l -4.41,-14.57 c -3.53,1.91 -10.44,4.71 -19.72,4.71 -11.47,0 -16.48,-6.18 -16.48,-11.92 0,-7.65 5.74,-11.18 18.98,-16.33 17.22,-6.48 25.61,-15.15 25.61,-29.43 0,-15.89 -12.07,-29.72 -37.67,-29.72 -10.45,0 -21.34,2.95 -26.78,6.18 l 3.97,15.01" /><path
         id="path120"
         style="fill:#444244;fill-opacity:1;fill-rule:nonzero;stroke:none"
         d="m 1475.75,2596.91 c -3.82,-1.76 -11.33,-3.68 -20.3,-3.68 -22.37,0 -36.94,14.27 -36.94,36.49 0,21.48 14.71,38.25 39.88,38.25 6.62,0 13.38,-1.47 17.51,-3.38 l -3.24,-13.54 c -2.94,1.33 -7.21,2.8 -13.68,2.8 -13.84,0 -22.07,-10.15 -21.93,-23.24 0,-14.72 9.56,-23.11 21.93,-23.11 6.32,0 10.74,1.33 14.27,2.8 l 2.5,-13.39" /><path
         id="path122"
         style="fill:#444244;fill-opacity:1;fill-rule:nonzero;stroke:none"
         d="m 1489.12,2643.26 c 0,9.71 -0.15,16.62 -0.59,23.1 h 15.74 l 0.59,-13.68 h 0.59 c 3.53,10.14 11.92,15.29 19.57,15.29 1.76,0 2.79,-0.15 4.27,-0.44 v -17.06 c -1.48,0.29 -3.09,0.58 -5.3,0.58 -8.68,0 -14.57,-5.59 -16.19,-13.68 -0.29,-1.62 -0.59,-3.53 -0.59,-5.59 v -37.08 h -18.09 v 48.56" /><path
         id="path124"
         style="fill:#444244;fill-opacity:1;fill-rule:nonzero;stroke:none"
         d="m 1541.48,2594.7 v 71.66 h 18.25 v -71.66 z m 19.28,91.67 c 0,-5.45 -3.98,-9.72 -10.3,-9.72 -6.03,0 -10.01,4.27 -10.01,9.72 0,5.59 4.12,9.86 10.16,9.86 6.17,0 10,-4.27 10.15,-9.86" /><path
         id="path126"
         style="fill:#444244;fill-opacity:1;fill-rule:nonzero;stroke:none"
         d="m 1597.23,2624.71 c 0,-1.76 0.15,-3.38 0.59,-5 1.77,-7.35 8.25,-12.65 15.89,-12.65 11.48,0 18.25,9.57 18.25,23.69 0,12.65 -6.18,22.95 -17.8,22.95 -7.51,0 -14.42,-5.44 -16.19,-13.39 -0.44,-1.47 -0.74,-3.08 -0.74,-4.56 z m -18.09,17.81 c 0,9.42 -0.3,17.07 -0.59,23.84 h 15.89 l 0.88,-11.04 c 5.59,8.1 13.98,12.65 24.87,12.65 16.48,0 30.16,-14.12 30.16,-36.49 0,-25.89 -16.33,-38.39 -32.66,-38.39 -8.98,0 -16.48,3.82 -20.16,9.55 l -0.3,-37.07 h -18.09 v 76.95" /><path
         id="path128"
         style="fill:#444244;fill-opacity:1;fill-rule:nonzero;stroke:none"
         d="m 1685.93,2686.8 v -20.44 h 17.22 v -13.54 h -17.22 v -31.63 c 0,-8.68 2.36,-13.25 9.27,-13.25 3.09,0 5.45,0.44 7.07,0.89 l 0.29,-13.84 c -2.65,-1.02 -7.36,-1.76 -13.1,-1.76 -6.62,0 -12.21,2.21 -15.59,5.88 -3.82,4.12 -5.59,10.6 -5.59,20.02 v 33.69 h -10.3 v 13.54 h 10.3 v 16.18 l 17.65,4.26" /><path
         id="path130"
         style="fill:#514342;fill-opacity:1;fill-rule:nonzero;stroke:none"
         d="m 917.262,2385.27 c 37.453,0 55.078,3.77 55.078,-12.82 0,-37.45 3.773,-55.08 -12.813,-55.08 -37.449,0 -55.078,-3.77 -55.078,12.81 0,37.46 -3.773,55.09 12.813,55.09" /><path
         id="path132"
         style="fill:#514342;fill-opacity:1;fill-rule:nonzero;stroke:none"
         d="m 917.262,2534.57 c 37.453,0 55.078,3.77 55.078,-12.81 0,-37.46 3.773,-55.09 -12.813,-55.09 -37.449,0 -55.078,-3.77 -55.078,12.82 0,37.45 -3.773,55.08 12.813,55.08" /><path
         id="path134"
         style="fill:#514342;fill-opacity:1;fill-rule:nonzero;stroke:none"
         d="m 917.262,2693.56 c 37.453,0 55.078,3.77 55.078,-12.81 0,-37.45 3.773,-55.08 -12.813,-55.08 -37.449,0 -55.078,-3.78 -55.078,12.81 0,37.46 -3.773,55.08 12.813,55.08" /><path
         id="path136"
         style="fill:#514342;fill-opacity:1;fill-rule:nonzero;stroke:none"
         d="m 917.262,2823.84 c 37.453,0 55.078,3.77 55.078,-12.82 0,-37.45 3.773,-55.07 -12.813,-55.07 -37.449,0 -55.078,-3.78 -55.078,12.81 v 42.26 c 0,7.08 5.739,12.82 12.813,12.82" /><path
         id="path138"
         style="fill:#514342;fill-opacity:1;fill-rule:nonzero;stroke:none"
         d="m 917.262,2976.23 c 37.453,0 55.078,3.77 55.078,-12.81 0,-37.46 3.773,-55.08 -12.813,-55.08 -37.449,0 -55.078,-3.78 -55.078,12.81 0,37.45 -3.773,55.08 12.813,55.08" /><path
         id="path140"
         style="fill:#746968;fill-opacity:1;fill-rule:nonzero;stroke:none"
         d="m 1153.05,2907.4 c -104.82,0 -105.35,3.06 -105.35,20.29 0,22.85 -4.16,48.54 19.35,48.54 139.24,0 229.07,0.94 287.03,0.94 104.85,0 105.41,-3.07 105.41,-20.29 0,-22.85 4.16,-48.54 -19.35,-48.54 -139.26,0 -229.13,-0.94 -287.09,-0.94" /><path
         id="path142"
         style="fill:#746968;fill-opacity:1;fill-rule:nonzero;stroke:none"
         d="m 1572.48,2907.46 c -68.1,0 -72.95,3.02 -72.95,20.23 0,22.85 -4.17,48.54 19.35,48.54 82.73,0 137.9,0.88 174.65,0.88 68.13,0 72.99,-3.02 72.99,-20.23 0,-22.85 4.17,-48.54 -19.35,-48.54 -82.76,0 -137.94,-0.88 -174.69,-0.88" /><path
         id="path144"
         style="fill:#746968;fill-opacity:1;fill-rule:nonzero;stroke:none"
         d="m 1891.39,2907.5 c -71.85,0 -76.01,2.98 -76.01,20.19 0,22.85 -4.17,48.54 19.35,48.54 85.97,0 143.29,0.84 181.49,0.84 71.89,0 76.06,-2.98 76.06,-20.19 0,-22.85 4.16,-48.54 -19.36,-48.54 -86,0 -143.34,-0.84 -181.53,-0.84" /><path
         id="path146"
         style="fill:#746968;fill-opacity:1;fill-rule:nonzero;stroke:none"
         d="m 1153.05,2755.01 c -104.81,0 -105.35,3.06 -105.35,20.29 v 29.18 c 0,10.7 8.67,19.36 19.35,19.36 139.26,0 229.13,0.93 287.09,0.93 104.82,0 105.35,-3.06 105.35,-20.29 0,-22.84 4.16,-48.53 -19.35,-48.53 -139.26,0 -229.12,-0.94 -287.09,-0.94" /><path
         id="path148"
         style="fill:#746968;fill-opacity:1;fill-rule:nonzero;stroke:none"
         d="m 1572.52,2755.07 c -68.13,0 -72.99,3.01 -72.99,20.23 0,22.85 -4.17,48.54 19.35,48.54 82.73,0 137.91,0.87 174.66,0.87 68.13,0 72.98,-3.01 72.98,-20.23 0,-22.84 4.17,-48.53 -19.35,-48.53 -82.73,0 -137.89,-0.88 -174.65,-0.88" /><path
         id="path150"
         style="fill:#746968;fill-opacity:1;fill-rule:nonzero;stroke:none"
         d="m 1891.44,2755.1 c -71.89,0 -76.06,2.99 -76.06,20.2 0,22.85 -4.17,48.54 19.35,48.54 85.97,0 143.3,0.84 181.5,0.84 71.89,0 76.05,-2.98 76.05,-20.2 0,-22.84 4.16,-48.53 -19.36,-48.53 -85.97,0 -143.29,-0.85 -181.48,-0.85" /><path
         id="path152"
         style="fill:#746968;fill-opacity:1;fill-rule:nonzero;stroke:none"
         d="m 1153.1,2465.74 c -104.84,0 -105.4,3.06 -105.4,20.28 0,22.86 -4.16,48.55 19.35,48.55 139.24,0 229.07,0.94 287.03,0.94 104.85,0 105.41,-3.07 105.41,-20.29 0,-22.85 4.16,-48.55 -19.35,-48.55 -139.23,0 -229.07,-0.93 -287.04,-0.93" /><path
         id="path154"
         style="fill:#746968;fill-opacity:1;fill-rule:nonzero;stroke:none"
         d="m 1572.51,2465.8 c -68.13,0 -72.98,3.01 -72.98,20.22 0,22.86 -4.17,48.55 19.35,48.55 82.73,0 137.9,0.88 174.65,0.88 68.13,0 72.99,-3.02 72.99,-20.23 0,-22.85 4.17,-48.55 -19.35,-48.55 -82.73,0 -137.9,-0.87 -174.66,-0.87" /><path
         id="path156"
         style="fill:#746968;fill-opacity:1;fill-rule:nonzero;stroke:none"
         d="m 1891.43,2465.83 c -71.89,0 -76.05,2.99 -76.05,20.19 v 29.2 c 0,10.68 8.66,19.35 19.35,19.35 85.97,0 143.29,0.84 181.49,0.84 71.89,0 76.06,-2.98 76.06,-20.19 0,-22.85 4.16,-48.55 -19.36,-48.55 -85.97,0 -143.3,-0.84 -181.49,-0.84" /><path
         id="path158"
         style="fill:#746968;fill-opacity:1;fill-rule:nonzero;stroke:none"
         d="m 1047.7,2347.12 v 18.79 c 0,10.69 8.67,19.36 19.35,19.36 139.21,0 229.05,0.93 287.02,0.93 100.43,0 105.18,-2.81 105.41,-18.17 -150.45,-10.97 -284.31,-17.71 -411.78,-20.91" /><path
         id="path160"
         style="fill:#746968;fill-opacity:1;fill-rule:nonzero;stroke:none"
         d="m 1572.51,2316.49 c -6.14,0 -11.76,0.03 -16.92,0.09 1.2,17.44 2.45,35.15 3.75,53.23 0.22,2.97 -2.17,5.48 -5.1,5.48 -0.14,0 -0.28,0 -0.42,-0.01 -18.12,-1.46 -35.95,-2.86 -53.6,-4.21 2.26,8.18 9.76,14.2 18.66,14.2 82.71,0 137.88,0.88 174.64,0.88 68.15,0 73,-3.02 73,-20.24 0,-22.84 4.17,-48.54 -19.35,-48.54 -82.73,0 -137.9,-0.88 -174.66,-0.88" /><path
         id="path162"
         style="fill:#746968;fill-opacity:1;fill-rule:nonzero;stroke:none"
         d="m 1891.43,2316.53 c -71.89,0 -76.05,2.98 -76.05,20.19 0,22.85 -4.17,48.55 19.35,48.55 85.96,0 143.28,0.84 181.48,0.84 71.9,0 76.07,-2.98 76.07,-20.2 0,-22.84 4.16,-48.54 -19.36,-48.54 -4.99,0 -9.87,0 -14.67,-0.01 -47.38,10.04 -75.15,17.03 -75.89,17.22 l -5.52,1.4 v -5.69 c 0,-4.43 0,-8.85 0,-13.25 -35.81,-0.24 -63.71,-0.51 -85.41,-0.51" /><path
         id="path164"
         style="fill:#ffffff;fill-opacity:1;fill-rule:nonzero;stroke:none"
         d="m 166.523,1406.57 c -129.3042,-5.67 27.747,213.24 -60.179,963.09 -0.371,3.15 2.234,5.91 5.41,5.71 551.801,-35.33 877.562,-45.62 1442.066,-0.09 3.12,0.25 5.75,-2.36 5.52,-5.47 -24.33,-337.66 -31.02,-558.95 -4.44,-905.48 5.21,-67.87 -28.55,-58.07 -303.75,-48.27 -203.03,7.23 -537.47,14.46 -1084.627,-9.49" /><path
         id="path166"
         style="fill:#eee4d9;fill-opacity:1;fill-rule:nonzero;stroke:none"
         d="m 112.047,2369.67 c 45.598,-389.29 25.301,-634.9 13.172,-781.69 -7.809,-94.48 -12.106,-146.52 6.707,-166.07 7.043,-7.33 17.984,-10.39 34.355,-9.68 629.887,27.57 980.089,13.76 1168.239,6.33 135.05,-5.33 190.94,-7.54 208.06,10.24 6.24,6.48 8.12,16.32 6.67,35.1 -26.67,347.71 -19.84,569.18 4.39,905.68 -548.75,-44.23 -874.55,-36.2 -1441.593,0.09 z m 49.746,-968.88 c -17.215,0 -29.379,4.26 -38.031,13.26 -22.364,23.25 -17.914,77.1 -9.832,174.86 12.097,146.45 32.347,391.56 -13.211,780.08 -0.375,3.19 0.679,6.35 2.894,8.68 2.215,2.33 5.34,3.54 8.508,3.35 567.055,-36.31 892.639,-44.34 1441.249,-0.09 3.14,0.28 6.21,-0.88 8.45,-3.1 2.24,-2.23 3.4,-5.3 3.17,-8.43 -24.23,-336.29 -31.07,-557.43 -4.44,-904.63 1.24,-16.19 0.91,-32.71 -9.81,-43.84 -20.66,-21.43 -74.03,-19.31 -216.67,-13.69 -187.98,7.42 -537.882,21.21 -1167.297,-6.33 -1.703,-0.08 -3.367,-0.12 -4.98,-0.12" /><path
         id="path168"
         style="fill:#444244;fill-opacity:1;fill-rule:nonzero;stroke:none"
         d="m 1503.17,2429.24 c -1194.772,-67.84 -1397.541,70.6 -1397.541,-53.48 565.969,-34.31 881.25,-47.71 1454.141,0 0,30.75 -25.87,55.23 -56.6,53.48" /><path
         id="path170"
         style="fill:#444244;fill-opacity:1;fill-rule:nonzero;stroke:none"
         d="m 111.434,2381.08 c 547.656,-33.17 862.898,-48.13 1442.396,-0.13 -1.2,11.31 -6.33,21.69 -14.73,29.63 -9.68,9.14 -22.29,13.77 -35.61,13 -606.193,-34.42 -963.775,-15.4 -1155.877,-5.2 -135.468,7.21 -203.472,10.82 -225.847,-10.41 -6.375,-6.04 -9.641,-14.46 -10.332,-26.89 z m 769.218,-42.1 c -242.695,0 -473.773,12.84 -775.367,31.12 l -5.3241,0.32 v 5.34 c 0,18.53 4.4491,31.38 14.0081,40.44 25.922,24.57 86.902,21.33 234.246,13.5 191.883,-10.2 549.051,-29.19 1154.635,5.2 16.41,0.93 32.06,-4.78 44.03,-16.09 11.96,-11.3 18.56,-26.59 18.56,-43.05 v -5.22 l -5.2,-0.43 c -266.42,-22.19 -477.05,-31.13 -679.588,-31.13" /><path
         id="path172"
         style="fill:#bec0c2;fill-opacity:1;fill-rule:nonzero;stroke:none"
         d="m 1485.08,2381.96 c 20.18,1.37 27.6,0.21 27.1,7.55 -0.97,14.16 0.05,22.07 -7.17,21.57 -20.18,-1.37 -27.61,-0.2 -27.1,-7.55 l 1.11,-16.28 c 0.21,-3.14 2.93,-5.5 6.06,-5.29" /><path
         id="path174"
         style="fill:#ffffff;fill-opacity:1;fill-rule:nonzero;stroke:none"
         d="m 1485.92,2384.97 -2.05,0.87 c -1.08,1.14 -1.04,2.93 0.09,4.01 l 18.24,17.44 c 1.14,1.08 2.93,1.04 4.01,-0.09 1.08,-1.13 1.04,-2.92 -0.09,-4.01 l -18.24,-17.43 -1.96,-0.79" /><path
         id="path176"
         style="fill:#ffffff;fill-opacity:1;fill-rule:nonzero;stroke:none"
         d="m 1505.26,2386.29 -1.66,0.54 -20.44,14.8 c -1.27,0.91 -1.55,2.69 -0.63,3.96 0.91,1.26 2.68,1.55 3.96,0.62 l 20.44,-14.79 c 1.26,-0.92 1.54,-2.69 0.63,-3.96 l -2.3,-1.17" /><path
         id="path178"
         style="fill:#d6723a;fill-opacity:1;fill-rule:nonzero;stroke:none"
         d="m 299.543,1919.1 c 2.945,-0.79 6.871,-0.98 11.773,-0.98 18.055,0 29.047,8.83 29.047,24.34 0,14.71 -10.207,22.56 -26.886,22.56 -6.672,0 -11.379,-0.59 -13.934,-1.17 z m -23.941,61.62 c 8.636,1.57 20.605,2.75 36.894,2.75 17.66,0 30.609,-3.73 39.051,-10.8 7.848,-6.47 12.953,-16.87 12.953,-29.23 0,-12.57 -3.926,-22.96 -11.383,-30.03 -9.613,-9.61 -24.726,-14.13 -41.801,-14.13 -4.511,0 -8.632,0.2 -11.773,0.79 v -49.85 h -23.941 v 130.5" /><path
         id="path180"
         style="fill:#d6723a;fill-opacity:1;fill-rule:nonzero;stroke:none"
         d="m 400.621,1945.79 17.27,-51.22 c 1.964,-5.88 3.925,-13.15 5.3,-18.64 h 0.59 c 1.567,5.49 3.336,12.56 5.102,18.84 l 14.914,51.02 h 25.902 l -23.941,-65.15 c -13.149,-35.71 -21.977,-51.61 -33.36,-61.42 -9.421,-8.44 -19.23,-11.58 -25.316,-12.37 l -5.492,20.41 c 4.121,0.99 9.223,3.14 14.129,6.67 4.511,2.95 9.816,8.64 13.144,15.12 0.985,1.76 1.575,3.14 1.575,4.31 0,0.98 -0.196,2.36 -1.379,4.72 l -34.926,87.71 h 26.488" /><path
         id="path182"
         style="fill:#d6723a;fill-opacity:1;fill-rule:nonzero;stroke:none"
         d="m 511.32,1973.07 v -27.28 h 22.957 v -18.05 H 511.32 v -42.19 c 0,-11.58 3.141,-17.67 12.364,-17.67 4.121,0 7.261,0.59 9.418,1.18 l 0.39,-18.45 c -3.527,-1.37 -9.808,-2.35 -17.461,-2.35 -8.832,0 -16.289,2.95 -20.804,7.85 -5.102,5.5 -7.457,14.13 -7.457,26.69 v 44.94 h -13.735 v 18.05 h 13.735 v 21.59 l 23.55,5.69" /><path
         id="path184"
         style="fill:#d6723a;fill-opacity:1;fill-rule:nonzero;stroke:none"
         d="m 552.543,1989.55 h 24.336 v -56.9 c 3.332,4.51 7.258,8.23 12.359,10.98 4.715,2.75 10.403,4.32 16.485,4.32 16.293,0 33.363,-10.79 33.363,-41.41 v -56.32 h -24.137 v 53.58 c 0,13.93 -5.101,24.33 -18.449,24.33 -9.418,0 -16.094,-6.28 -18.641,-13.54 -0.789,-1.96 -0.98,-4.51 -0.98,-7.26 v -57.11 h -24.336 v 139.33" /><path
         id="path186"
         style="fill:#d6723a;fill-opacity:1;fill-rule:nonzero;stroke:none"
         d="m 683.648,1897.91 c 0,-18.45 9.024,-32.38 23.743,-32.38 13.738,0 23.351,13.54 23.351,32.77 0,14.92 -6.668,31.99 -23.152,31.99 -17.07,0 -23.942,-16.49 -23.942,-32.38 z m 72.016,0.98 c 0,-35.13 -24.726,-50.82 -49.055,-50.82 -27.082,0 -47.882,18.64 -47.882,49.25 0,31.4 20.605,50.63 49.449,50.63 28.457,0 47.488,-20.02 47.488,-49.06" /><path
         id="path188"
         style="fill:#d6723a;fill-opacity:1;fill-rule:nonzero;stroke:none"
         d="m 775.504,1917.34 c 0,10.98 -0.195,20.21 -0.785,28.45 h 21.195 l 1.18,-14.33 h 0.586 c 4.121,7.46 14.519,16.49 30.418,16.49 16.679,0 33.945,-10.79 33.945,-41.01 v -56.72 h -24.137 v 53.97 c 0,13.73 -5.101,24.13 -18.246,24.13 -9.621,0 -16.289,-6.87 -18.844,-14.12 -0.781,-2.16 -0.98,-5.1 -0.98,-7.85 v -56.13 h -24.332 v 67.12" /><path
         id="path190"
         style="fill:#e29d75;fill-opacity:1;fill-rule:nonzero;stroke:none"
         d="m 261.898,2141.42 c -71.246,0 -74.921,2.91 -74.921,19.59 0,19.39 -3.797,43.86 18.742,43.86 86.91,0 144.554,0.84 182.75,0.84 71.207,0 74.867,-2.91 74.867,-19.58 0,-19.39 3.797,-43.87 -18.742,-43.87 -86.879,0 -144.496,-0.84 -182.696,-0.84" /><path
         id="path192"
         style="fill:#e29d75;fill-opacity:1;fill-rule:nonzero;stroke:none"
         d="m 600.262,2141.42 c -71.25,0 -74.922,2.91 -74.922,19.59 0,19.39 -3.793,43.86 18.738,43.86 86.91,0 144.555,0.84 182.75,0.84 71.211,0 74.871,-2.91 74.871,-19.58 0,-19.39 3.789,-43.87 -18.742,-43.87 -86.883,0 -144.5,-0.84 -182.695,-0.84" /><path
         id="path194"
         style="fill:#e29d75;fill-opacity:1;fill-rule:nonzero;stroke:none"
         d="m 938.621,2141.42 c -71.246,0 -74.922,2.91 -74.922,19.59 0,19.39 -3.797,43.86 18.742,43.86 86.914,0 144.559,0.84 182.749,0.84 71.21,0 74.87,-2.91 74.87,-19.58 v -25.12 c 0,-10.36 -8.39,-18.75 -18.74,-18.75 -86.88,0 -144.5,-0.84 -182.699,-0.84" /><path
         id="path196"
         style="fill:#e29d75;fill-opacity:1;fill-rule:nonzero;stroke:none"
         d="m 1276.99,2141.42 c -71.25,0 -74.93,2.91 -74.93,19.59 0,19.39 -3.79,43.86 18.74,43.86 86.91,0 144.56,0.84 182.75,0.84 71.21,0 74.87,-2.91 74.87,-19.58 0,-19.39 3.8,-43.87 -18.74,-43.87 -86.88,0 -144.5,-0.84 -182.69,-0.84" /><path
         id="path198"
         style="fill:#e29d75;fill-opacity:1;fill-rule:nonzero;stroke:none"
         d="m 261.848,2035.29 c -71.211,0 -74.871,2.91 -74.871,19.58 0,19.4 -3.797,43.87 18.742,43.87 86.926,0 144.562,0.84 182.758,0.84 71.187,0 74.859,-2.91 74.859,-19.58 0,-19.4 3.797,-43.87 -18.742,-43.87 -86.91,0 -144.551,-0.84 -182.746,-0.84" /><path
         id="path200"
         style="fill:#e29d75;fill-opacity:1;fill-rule:nonzero;stroke:none"
         d="m 600.207,2035.29 c -71.207,0 -74.867,2.91 -74.867,19.58 0,19.4 -3.793,43.87 18.738,43.87 86.926,0 144.563,0.84 182.758,0.84 71.191,0 74.863,-2.91 74.863,-19.58 0,-19.4 3.789,-43.87 -18.742,-43.87 -86.91,0 -144.555,-0.84 -182.75,-0.84" /><path
         id="path202"
         style="fill:#e29d75;fill-opacity:1;fill-rule:nonzero;stroke:none"
         d="m 938.57,2035.29 c -71.211,0 -74.871,2.91 -74.871,19.58 0,19.4 -3.797,43.87 18.742,43.87 h 238.879 c 10.35,0 18.74,-8.39 18.74,-18.74 v -25.13 c 0,-10.35 -8.39,-18.74 -18.74,-18.74 -86.91,0 -144.554,-0.84 -182.75,-0.84" /><path
         id="path204"
         style="fill:#e29d75;fill-opacity:1;fill-rule:nonzero;stroke:none"
         d="m 1276.93,2035.29 c -71.21,0 -74.87,2.91 -74.87,19.58 0,19.4 -3.79,43.87 18.74,43.87 86.93,0 144.56,0.84 182.76,0.84 71.19,0 74.86,-2.91 74.86,-19.58 0,-19.4 3.8,-43.87 -18.74,-43.87 -86.91,0 -144.55,-0.84 -182.75,-0.84" /><path
         id="path206"
         style="fill:#e29d75;fill-opacity:1;fill-rule:nonzero;stroke:none"
         d="m 1276.93,1876.09 c -71.2,0 -74.87,2.91 -74.87,19.58 0,19.4 -3.79,43.87 18.74,43.87 86.91,0 144.56,0.84 182.75,0.84 71.21,0 74.87,-2.91 74.87,-19.58 0,-19.39 3.8,-43.87 -18.74,-43.87 -86.91,0 -144.55,-0.84 -182.75,-0.84" /><path
         id="path208"
         style="fill:#e29d75;fill-opacity:1;fill-rule:nonzero;stroke:none"
         d="m 261.914,1716.89 c -71.269,0 -74.937,2.91 -74.937,19.59 0,19.39 -3.797,43.87 18.742,43.87 86.867,0 144.484,0.83 182.679,0.83 71.27,0 74.938,-2.91 74.938,-19.58 0,-19.39 3.797,-43.87 -18.742,-43.87 -86.864,0 -144.485,-0.84 -182.68,-0.84" /><path
         id="path210"
         style="fill:#e29d75;fill-opacity:1;fill-rule:nonzero;stroke:none"
         d="m 600.277,1716.89 c -71.269,0 -74.937,2.91 -74.937,19.59 0,19.39 -3.793,43.87 18.738,43.87 86.867,0 144.485,0.83 182.684,0.83 71.269,0 74.937,-2.91 74.937,-19.58 v -25.12 c 0,-10.35 -8.39,-18.75 -18.742,-18.75 -86.867,0 -144.484,-0.84 -182.68,-0.84" /><path
         id="path212"
         style="fill:#e29d75;fill-opacity:1;fill-rule:nonzero;stroke:none"
         d="m 938.637,1716.89 c -71.266,0 -74.938,2.91 -74.938,19.59 0,19.39 -3.797,43.87 18.742,43.87 86.868,0 144.489,0.83 182.679,0.83 71.27,0 74.94,-2.91 74.94,-19.58 v -25.12 c 0,-10.35 -8.39,-18.75 -18.74,-18.75 -86.87,0 -144.488,-0.84 -182.683,-0.84" /><path
         id="path214"
         style="fill:#e29d75;fill-opacity:1;fill-rule:nonzero;stroke:none"
         d="m 1277,1716.89 c -71.27,0 -74.94,2.91 -74.94,19.59 0,19.39 -3.79,43.87 18.74,43.87 86.87,0 144.49,0.83 182.68,0.83 71.27,0 74.94,-2.91 74.94,-19.58 0,-19.39 3.8,-43.87 -18.74,-43.87 -86.87,0 -144.48,-0.84 -182.68,-0.84" /><path
         id="path216"
         style="fill:#e29d75;fill-opacity:1;fill-rule:nonzero;stroke:none"
         d="m 261.914,1610.76 c -71.269,0 -74.937,2.91 -74.937,19.59 0,19.39 -3.797,43.86 18.742,43.86 86.867,0 144.492,0.84 182.687,0.84 71.27,0 74.93,-2.91 74.93,-19.59 0,-19.38 3.797,-43.86 -18.742,-43.86 -86.864,0 -144.485,-0.84 -182.68,-0.84" /><path
         id="path218"
         style="fill:#e29d75;fill-opacity:1;fill-rule:nonzero;stroke:none"
         d="m 600.277,1610.76 c -71.269,0 -74.937,2.91 -74.937,19.59 0,19.39 -3.793,43.86 18.738,43.86 86.867,0 144.492,0.84 182.692,0.84 71.265,0 74.929,-2.91 74.929,-19.59 0,-19.38 3.789,-43.86 -18.742,-43.86 -86.867,0 -144.484,-0.84 -182.68,-0.84" /><path
         id="path220"
         style="fill:#e29d75;fill-opacity:1;fill-rule:nonzero;stroke:none"
         d="m 938.637,1610.76 c -71.266,0 -74.938,2.91 -74.938,19.59 0,19.39 -3.797,43.86 18.742,43.86 86.868,0 144.499,0.84 182.689,0.84 71.27,0 74.93,-2.91 74.93,-19.59 0,-19.38 3.79,-43.86 -18.74,-43.86 -86.87,0 -144.488,-0.84 -182.683,-0.84" /><path
         id="path222"
         style="fill:#e29d75;fill-opacity:1;fill-rule:nonzero;stroke:none"
         d="m 1277,1610.76 c -71.27,0 -74.94,2.91 -74.94,19.59 0,19.39 -3.79,43.86 18.74,43.86 86.87,0 144.5,0.84 182.69,0.84 71.27,0 74.93,-2.91 74.93,-19.59 0,-19.38 3.8,-43.86 -18.74,-43.86 -86.87,0 -144.48,-0.84 -182.68,-0.84" /><path
         id="path224"
         style="fill:#e29d75;fill-opacity:1;fill-rule:nonzero;stroke:none"
         d="m 261.914,1504.63 c -71.269,0 -74.937,2.91 -74.937,19.58 0,19.4 -3.797,43.87 18.742,43.87 86.883,0 144.515,0.84 182.711,0.84 71.246,0 74.906,-2.91 74.906,-19.58 0,-19.39 3.797,-43.88 -18.742,-43.88 -86.864,0 -144.485,-0.83 -182.68,-0.83" /><path
         id="path226"
         style="fill:#e29d75;fill-opacity:1;fill-rule:nonzero;stroke:none"
         d="m 600.277,1504.63 c -71.269,0 -74.937,2.91 -74.937,19.58 0,19.4 -3.793,43.87 18.738,43.87 86.883,0 144.516,0.84 182.711,0.84 71.25,0 74.91,-2.91 74.91,-19.58 v -25.13 c 0,-10.35 -8.39,-18.75 -18.742,-18.75 -86.867,0 -144.484,-0.83 -182.68,-0.83" /><path
         id="path228"
         style="fill:#e29d75;fill-opacity:1;fill-rule:nonzero;stroke:none"
         d="m 938.637,1504.63 c -71.266,0 -74.938,2.91 -74.938,19.58 0,19.4 -3.797,43.87 18.742,43.87 86.883,0 144.519,0.84 182.709,0.84 71.25,0 74.91,-2.91 74.91,-19.58 0,-19.39 3.79,-43.88 -18.74,-43.88 -86.87,0 -144.488,-0.83 -182.683,-0.83" /><path
         id="path230"
         style="fill:#e29d75;fill-opacity:1;fill-rule:nonzero;stroke:none"
         d="m 1277,1504.63 c -71.27,0 -74.94,2.91 -74.94,19.58 0,19.4 -3.79,43.87 18.74,43.87 86.88,0 144.52,0.84 182.71,0.84 71.25,0 74.91,-2.91 74.91,-19.58 0,-19.39 3.8,-43.88 -18.74,-43.88 -86.87,0 -144.48,-0.83 -182.68,-0.83" /><path
         id="path232"
         style="fill:#ffffff;fill-opacity:1;fill-rule:nonzero;stroke:none"
         d="m 2012.2,1071.24 c -44.19,12.27 -30.93,-44.43 -30.93,1259.05 0,0 812.81,-206.4 1250.12,0 V 1105.55 c 0,-93.5 -508.85,-231.409 -1219.19,-34.31" /><path
         id="path234"
         style="fill:#eee4d9;fill-opacity:1;fill-rule:nonzero;stroke:none"
         d="m 2013.39,1075.51 c 619.12,-171.791 1079.99,-88.119 1189.13,-5.14 15.99,12.16 24.44,24.32 24.44,35.19 v 1217.78 c -226.57,-104 -551.42,-98.24 -785.06,-74.86 -231.91,23.2 -421.88,67.8 -456.2,76.15 -0.01,-300.96 -0.74,-532.62 -1.27,-702.05 -1.65,-529.9 -1.22,-540.11 23.77,-545.79 1.65,-0.37 3.36,-0.77 5.19,-1.28 m 691.87,-108.869 c -192.64,0 -429.09,26.757 -694.24,100.349 -1.67,0.46 -3.26,0.82 -4.78,1.16 -32.38,7.37 -32.38,7.37 -30.67,554.46 0.54,170.48 1.27,403.97 1.27,707.68 v 5.69 l 5.52,-1.4 c 2.03,-0.52 205.93,-51.84 460.54,-77.3 234.68,-23.47 561.64,-29.16 786.59,77.01 l 6.32,2.98 V 1105.56 c 0,-13.92 -9.39,-28.14 -27.94,-42.24 -63.32,-48.14 -243.25,-96.679 -502.61,-96.679" /><path
         id="path236"
         style="fill:#444244;fill-opacity:1;fill-rule:nonzero;stroke:none"
         d="m 3172.51,2369.18 c -367.5,-152.62 -960.79,-28.37 -1139,14.69 -18.88,4.55 -52.24,-1.79 -52.24,-53.58 0,0 833.69,-206.4 1250.12,0 0,30.32 -30.87,50.53 -58.88,38.89" /><path
         id="path238"
         style="fill:#444244;fill-opacity:1;fill-rule:nonzero;stroke:none"
         d="m 1985.74,2333.76 c 58.65,-13.98 843.56,-195.37 1241.13,-0.76 -0.79,11.71 -6.77,22.04 -16.65,28.64 -10.65,7.1 -24.11,8.4 -36.01,3.46 -132.2,-54.91 -293.81,-74.04 -454.75,-74.04 -288.49,-0.01 -574.98,61.44 -687,88.5 -4.2,1.01 -18.83,3.57 -31.03,-6.04 -9.84,-7.74 -15.11,-21.11 -15.69,-39.76 z m 734.13,-99.4 c -95.29,0 -188.1,6 -270.14,14.12 -257.81,25.54 -467.44,76.99 -469.52,77.51 l -3.37,0.83 v 3.47 c 0,23.32 6.43,40.21 19.11,50.19 15.34,12.08 33.43,8.93 38.59,7.69 173.85,-41.99 769.58,-167.18 1136.27,-14.9 14.64,6.08 31.21,4.49 44.33,-4.26 12.95,-8.65 20.67,-23.12 20.67,-38.72 v -2.75 l -2.46,-1.22 c -141.65,-70.21 -332.03,-91.96 -513.48,-91.96" /><path
         id="path240"
         style="fill:#bec0c2;fill-opacity:1;fill-rule:nonzero;stroke:none"
         d="m 3172.25,2324.78 c 18.89,7.21 26.34,8.26 23.72,15.13 -5.06,13.26 -6.39,21.12 -13.16,18.55 -18.9,-7.21 -26.33,-8.26 -23.72,-15.14 5.06,-13.26 6.39,-21.12 13.16,-18.54" /><path
         id="path242"
         style="fill:#ffffff;fill-opacity:1;fill-rule:nonzero;stroke:none"
         d="m 3171.35,2327.78 -1.39,0.36 c -1.36,0.77 -1.85,2.5 -1.08,3.87 l 12.36,22 c 0.76,1.37 2.48,1.85 3.86,1.08 1.36,-0.76 1.85,-2.49 1.07,-3.86 l -12.35,-22 c -0.53,-0.93 -1.48,-1.45 -2.47,-1.45" /><path
         id="path244"
         style="fill:#ffffff;fill-opacity:1;fill-rule:nonzero;stroke:none"
         d="m 3189.46,2334.69 -0.91,0.15 -23.87,8.19 c -1.48,0.51 -2.28,2.12 -1.77,3.6 0.52,1.48 2.12,2.26 3.61,1.76 l 23.86,-8.19 c 1.49,-0.5 2.28,-2.11 1.76,-3.59 -0.4,-1.18 -1.49,-1.92 -2.68,-1.92" /><path
         id="path246"
         style="fill:#444244;fill-opacity:1;fill-rule:nonzero;stroke:none"
         d="m 2687.84,1865.01 c -4.26,-2.21 -13.68,-4.42 -25.6,-4.42 -31.49,0 -50.61,19.72 -50.61,49.88 0,32.67 22.65,52.38 52.96,52.38 11.92,0 20.46,-2.5 24.13,-4.41 l -3.96,-14.42 c -4.72,2.06 -11.18,3.83 -19.44,3.83 -20.14,0 -34.71,-12.66 -34.71,-36.49 0,-21.78 12.8,-35.76 34.58,-35.76 7.35,0 15,1.47 19.7,3.68 l 2.95,-14.27" /><path
         id="path248"
         style="fill:#444244;fill-opacity:1;fill-rule:nonzero;stroke:none"
         d="m 2742.71,1940.34 v -33.25 h 31.92 v -11.48 h -31.92 v -33.55 h -12.07 v 33.55 h -31.94 v 11.48 h 31.94 v 33.25 h 12.07" /><path
         id="path250"
         style="fill:#444244;fill-opacity:1;fill-rule:nonzero;stroke:none"
         d="m 2830.36,1940.34 v -33.25 h 31.94 v -11.48 h -31.94 v -33.55 h -12.06 v 33.55 h -31.93 v 11.48 h 31.93 v 33.25 h 12.06" /><path
         id="path252"
         style="fill:#d6723a;fill-opacity:1;fill-rule:nonzero;stroke:none"
         d="m 2678.52,1593.47 c 2.95,-0.78 6.86,-0.99 11.77,-0.99 18.05,0 29.05,8.84 29.05,24.34 0,14.72 -10.21,22.57 -26.89,22.57 -6.68,0 -11.38,-0.59 -13.93,-1.18 z m -23.95,61.62 c 8.63,1.56 20.61,2.75 36.9,2.75 17.66,0 30.61,-3.73 39.05,-10.8 7.84,-6.47 12.95,-16.87 12.95,-29.23 0,-12.56 -3.93,-22.96 -11.39,-30.03 -9.61,-9.61 -24.72,-14.13 -41.79,-14.13 -4.52,0 -8.64,0.2 -11.77,0.79 v -49.85 h -23.95 v 130.5" /><path
         id="path254"
         style="fill:#d6723a;fill-opacity:1;fill-rule:nonzero;stroke:none"
         d="m 2788.43,1656.86 v -52.99 h 55.93 v 52.99 h 24.13 v -132.27 h -24.13 v 58.28 h -55.93 v -58.28 h -24.14 v 132.27 h 24.14" /><path
         id="path256"
         style="fill:#d6723a;fill-opacity:1;fill-rule:nonzero;stroke:none"
         d="m 2920.13,1593.47 c 2.95,-0.78 6.86,-0.99 11.78,-0.99 18.04,0 29.04,8.84 29.04,24.34 0,14.72 -10.21,22.57 -26.89,22.57 -6.67,0 -11.38,-0.59 -13.93,-1.18 z m -23.95,61.62 c 8.65,1.56 20.61,2.75 36.9,2.75 17.66,0 30.61,-3.73 39.05,-10.8 7.85,-6.47 12.95,-16.87 12.95,-29.23 0,-12.56 -3.93,-22.96 -11.39,-30.03 -9.61,-9.61 -24.71,-14.13 -41.78,-14.13 -4.52,0 -8.65,0.2 -11.78,0.79 v -49.85 h -23.95 v 130.5" /><path
         id="path258"
         style="fill:#444244;fill-opacity:1;fill-rule:nonzero;stroke:none"
         d="m 2933.72,1202.35 c -4.27,-2.21 -13.68,-4.42 -25.59,-4.42 -31.49,0 -50.63,19.72 -50.63,49.88 0,32.66 22.67,52.38 52.98,52.38 11.91,0 20.45,-2.5 24.12,-4.41 l -3.96,-14.42 c -4.72,2.05 -11.19,3.82 -19.43,3.82 -20.15,0 -34.72,-12.66 -34.72,-36.48 0,-21.78 12.8,-35.76 34.58,-35.76 7.35,0 15.01,1.47 19.71,3.68 l 2.94,-14.27" /><path
         id="path260"
         style="fill:#444244;fill-opacity:1;fill-rule:nonzero;stroke:none"
         d="m 2983.44,1238.25 2.5,18.68 h -14.28 l -2.5,-18.68 z m -31.06,-38.85 3.83,27.36 h -12.06 v 11.49 h 13.83 l 2.65,18.68 h -12.66 v 11.34 h 14.28 l 3.82,26.77 h 11.03 l -3.67,-26.77 h 14.27 l 3.83,26.77 h 11.03 l -3.68,-26.77 h 11.92 v -11.34 h -13.68 l -2.5,-18.68 h 12.35 v -11.33 h -14.26 l -3.68,-27.52 h -11.33 l 3.83,27.52 h -14.14 l -3.82,-27.52 h -11.19" /><path
         id="path262"
         style="fill:#b1cce0;fill-opacity:1;fill-rule:nonzero;stroke:none"
         d="m 2507.44,2110.07 h -218.2 c -9.45,0 -17.12,7.67 -17.12,17.12 v 22.95 c 0,9.46 7.67,17.13 17.12,17.13 h 218.2 c 9.46,0 17.12,-7.67 17.12,-17.13 v -22.95 c 0,-9.45 -7.66,-17.12 -17.12,-17.12" /><path
         id="path264"
         style="fill:#de8e61;fill-opacity:1;fill-rule:nonzero;stroke:none"
         d="m 2627.59,2109.31 c -65.2,0 -68.53,2.66 -68.53,17.88 0,17.31 -3.51,40.08 17.12,40.08 79.27,0 131.89,0.75 166.78,0.75 65.22,0 68.55,-2.65 68.55,-17.88 0,-17.3 3.51,-40.07 -17.12,-40.07 -79.29,0 -131.91,-0.76 -166.8,-0.76" /><path
         id="path266"
         style="fill:#b1cce0;fill-opacity:1;fill-rule:nonzero;stroke:none"
         d="m 2914.54,2109.31 c -65.2,0 -68.52,2.66 -68.52,17.88 0,17.31 -3.53,40.08 17.12,40.08 79.27,0 131.88,0.75 166.77,0.75 65.22,0 68.54,-2.65 68.54,-17.88 0,-17.3 3.52,-40.07 -17.12,-40.07 -79.28,0 -131.9,-0.76 -166.79,-0.76" /><path
         id="path268"
         style="fill:#b1cce0;fill-opacity:1;fill-rule:nonzero;stroke:none"
         d="m 2507.44,1990.27 h -218.2 c -9.45,0 -17.12,7.66 -17.12,17.12 v 22.95 c 0,9.45 7.67,17.12 17.12,17.12 h 218.2 c 9.46,0 17.12,-7.67 17.12,-17.12 v -22.95 c 0,-9.46 -7.66,-17.12 -17.12,-17.12" /><path
         id="path270"
         style="fill:#b1cce0;fill-opacity:1;fill-rule:nonzero;stroke:none"
         d="m 2627.61,1989.51 c -65.22,0 -68.55,2.65 -68.55,17.88 0,17.3 -3.51,40.07 17.12,40.07 79.29,0 131.9,0.76 166.79,0.76 65.21,0 68.54,-2.65 68.54,-17.88 0,-17.3 3.51,-40.07 -17.12,-40.07 -79.27,0 -131.89,-0.76 -166.78,-0.76" /><path
         id="path272"
         style="fill:#b1cce0;fill-opacity:1;fill-rule:nonzero;stroke:none"
         d="m 2507.44,1870.47 h -218.2 c -9.45,0 -17.12,7.66 -17.12,17.12 v 22.95 c 0,9.45 7.67,17.12 17.12,17.12 h 218.2 c 9.46,0 17.12,-7.67 17.12,-17.12 v -22.95 c 0,-9.46 -7.66,-17.12 -17.12,-17.12" /><path
         id="path274"
         style="fill:#b1cce0;fill-opacity:1;fill-rule:nonzero;stroke:none"
         d="m 2340.62,1749.91 c -65.17,0 -68.5,2.65 -68.5,17.88 0,17.3 -3.51,40.07 17.12,40.07 79.28,0 131.9,0.76 166.79,0.76 65.21,0 68.53,-2.66 68.53,-17.88 v -22.95 c 0,-9.47 -7.66,-17.12 -17.12,-17.12 -79.31,0 -131.93,-0.76 -166.82,-0.76" /><path
         id="path276"
         style="fill:#b1cce0;fill-opacity:1;fill-rule:nonzero;stroke:none"
         d="m 2794.39,1750.67 h -218.21 c -9.45,0 -17.12,7.65 -17.12,17.12 v 22.95 c 0,9.45 7.67,17.12 17.12,17.12 h 218.21 c 9.45,0 17.12,-7.67 17.12,-17.12 v -22.95 c 0,-9.47 -7.67,-17.12 -17.12,-17.12" /><path
         id="path278"
         style="fill:#b1cce0;fill-opacity:1;fill-rule:nonzero;stroke:none"
         d="m 2914.51,1749.91 c -65.17,0 -68.49,2.65 -68.49,17.88 0,17.3 -3.53,40.07 17.12,40.07 79.28,0 131.9,0.76 166.78,0.76 65.21,0 68.53,-2.66 68.53,-17.88 0,-17.31 3.52,-40.07 -17.12,-40.07 -79.31,0 -131.93,-0.76 -166.82,-0.76" /><path
         id="path280"
         style="fill:#746968;fill-opacity:1;fill-rule:nonzero;stroke:none"
         d="m 2340.61,1630.1 c -65.17,0 -68.49,2.66 -68.49,17.88 0,17.31 -3.51,40.07 17.12,40.07 h 218.2 c 9.46,0 17.12,-7.67 17.12,-17.12 v -22.95 c 0,-9.45 -7.66,-17.12 -17.12,-17.12 -79.31,0 -131.94,-0.76 -166.83,-0.76" /><path
         id="path282"
         style="fill:#746968;fill-opacity:1;fill-rule:nonzero;stroke:none"
         d="m 2340.69,1510.3 c -65.24,0 -68.57,2.65 -68.57,17.88 0,17.3 -3.51,40.07 17.12,40.07 79.31,0 131.94,0.76 166.83,0.76 65.17,0 68.49,-2.66 68.49,-17.88 v -22.95 c 0,-9.46 -7.66,-17.12 -17.12,-17.12 -79.25,0 -131.86,-0.76 -166.75,-0.76" /><path
         id="path284"
         style="fill:#b1cce0;fill-opacity:1;fill-rule:nonzero;stroke:none"
         d="m 2340.69,1390.49 c -65.24,0 -68.57,2.66 -68.57,17.88 0,17.31 -3.51,40.08 17.12,40.08 79.24,0 131.83,0.76 166.72,0.76 65.26,0 68.6,-2.65 68.6,-17.89 0,-17.3 3.52,-40.07 -17.12,-40.07 -79.25,0 -131.86,-0.76 -166.75,-0.76" /><path
         id="path286"
         style="fill:#b1cce0;fill-opacity:1;fill-rule:nonzero;stroke:none"
         d="m 2627.63,1390.49 c -65.24,0 -68.57,2.66 -68.57,17.88 0,17.31 -3.51,40.08 17.12,40.08 79.24,0 131.84,0.76 166.73,0.76 65.25,0 68.6,-2.65 68.6,-17.89 0,-17.3 3.51,-40.07 -17.12,-40.07 -79.26,0 -131.86,-0.76 -166.76,-0.76" /><path
         id="path288"
         style="fill:#b1cce0;fill-opacity:1;fill-rule:nonzero;stroke:none"
         d="m 2914.58,1390.49 c -65.24,0 -68.56,2.66 -68.56,17.88 0,17.31 -3.53,40.08 17.12,40.08 79.24,0 131.83,0.76 166.72,0.76 65.25,0 68.59,-2.65 68.59,-17.89 0,-17.3 3.52,-40.07 -17.12,-40.07 -79.26,0 -131.86,-0.76 -166.75,-0.76" /><path
         id="path290"
         style="fill:#b1cce0;fill-opacity:1;fill-rule:nonzero;stroke:none"
         d="m 2340.72,1270.69 c -65.26,0 -68.6,2.65 -68.6,17.89 0,17.29 -3.51,40.07 17.12,40.07 h 218.2 c 9.46,0 17.12,-7.67 17.12,-17.12 v -22.95 c 0,-9.47 -7.66,-17.13 -17.12,-17.13 -79.24,0 -131.83,-0.76 -166.72,-0.76" /><path
         id="path292"
         style="fill:#de8e61;fill-opacity:1;fill-rule:nonzero;stroke:none"
         d="m 2794.39,1271.45 h -218.21 c -9.45,0 -17.12,7.66 -17.12,17.13 v 22.95 c 0,9.45 7.67,17.12 17.12,17.12 79.26,0 131.86,0.76 166.76,0.76 65.24,0 68.57,-2.66 68.57,-17.88 v -22.95 c 0,-9.47 -7.67,-17.13 -17.12,-17.13" /><path
         id="path294"
         style="fill:#b1cce0;fill-opacity:1;fill-rule:nonzero;stroke:none"
         d="m 2340.61,1150.89 c -65.17,0 -68.49,2.66 -68.49,17.88 0,17.31 -3.51,40.07 17.12,40.07 79.26,0 131.86,0.76 166.75,0.76 65.24,0 68.57,-2.65 68.57,-17.88 0,-17.3 3.52,-40.07 -17.12,-40.07 -79.31,0 -131.94,-0.76 -166.83,-0.76" /><path
         id="path296"
         style="fill:#b1cce0;fill-opacity:1;fill-rule:nonzero;stroke:none"
         d="m 2627.56,1150.89 c -65.17,0 -68.5,2.66 -68.5,17.88 0,17.31 -3.51,40.07 17.12,40.07 79.26,0 131.86,0.76 166.76,0.76 65.24,0 68.57,-2.65 68.57,-17.88 0,-17.3 3.51,-40.07 -17.12,-40.07 -79.31,0 -131.94,-0.76 -166.83,-0.76" /><path
         id="path298"
         style="fill:#746968;fill-opacity:1;fill-rule:nonzero;stroke:none"
         d="m 2963.97,1864.75 c -17.36,0 -25.69,1.78 -25.69,13.18 v 42.26 c 0,7.08 5.74,12.82 12.82,12.82 h 42.26 c 7.08,0 12.81,-5.74 12.81,-12.82 0,-37.45 3.78,-55.07 -12.81,-55.07 -11.71,0 -21.49,-0.37 -29.39,-0.37" /><path
         id="path300"
         style="fill:#746968;fill-opacity:1;fill-rule:nonzero;stroke:none"
         d="m 3056.25,1864.75 c -17.37,0 -25.69,1.78 -25.69,13.18 v 42.26 c 0,7.08 5.74,12.82 12.81,12.82 h 42.27 c 7.08,0 12.81,-5.74 12.81,-12.82 0,-37.45 3.78,-55.07 -12.81,-55.07 -11.72,0 -21.49,-0.37 -29.39,-0.37" /><path
         id="path302"
         style="fill:#746968;fill-opacity:1;fill-rule:nonzero;stroke:none"
         d="m 2099.61,1265.73 c -17.39,0 -25.72,1.78 -25.72,13.19 0,37.45 -3.77,55.08 12.82,55.08 11.7,0 21.48,0.37 29.37,0.37 17.38,0 25.71,-1.78 25.71,-13.18 0,-37.47 3.77,-55.09 -12.81,-55.09 -11.71,0 -21.48,-0.37 -29.37,-0.37" /><path
         id="path304"
         style="fill:#746968;fill-opacity:1;fill-rule:nonzero;stroke:none"
         d="m 2191.88,1265.73 c -17.39,0 -25.72,1.78 -25.72,13.19 v 42.27 c 0,7.07 5.75,12.81 12.82,12.81 11.7,0 21.47,0.37 29.37,0.37 17.38,0 25.7,-1.78 25.7,-13.18 0,-37.47 3.78,-55.09 -12.81,-55.09 -11.7,0 -21.46,-0.37 -29.36,-0.37" /><path
         id="path306"
         style="fill:#746968;fill-opacity:1;fill-rule:nonzero;stroke:none"
         d="m 2099.6,1505.34 c -17.38,0 -25.71,1.78 -25.71,13.18 0,37.45 -3.77,55.08 12.82,55.08 11.72,0 21.5,0.37 29.41,0.37 17.35,0 25.67,-1.79 25.67,-13.19 0,-37.45 3.77,-55.07 -12.81,-55.07 -11.71,0 -21.48,-0.37 -29.38,-0.37" /><path
         id="path308"
         style="fill:#746968;fill-opacity:1;fill-rule:nonzero;stroke:none"
         d="m 2191.87,1505.34 c -17.38,0 -25.71,1.78 -25.71,13.18 0,37.45 -3.77,55.08 12.82,55.08 11.72,0 21.5,0.37 29.41,0.37 17.35,0 25.66,-1.79 25.66,-13.19 0,-37.45 3.78,-55.07 -12.81,-55.07 -11.7,0 -21.47,-0.37 -29.37,-0.37" /><path
         id="path310"
         style="fill:#746968;fill-opacity:1;fill-rule:nonzero;stroke:none"
         d="m 2099.56,1744.95 c -17.35,0 -25.67,1.78 -25.67,13.18 0,37.45 -3.77,55.08 12.82,55.08 11.71,0 21.49,0.37 29.39,0.37 17.36,0 25.69,-1.79 25.69,-13.19 0,-37.46 3.77,-55.07 -12.81,-55.07 -11.73,0 -21.51,-0.37 -29.42,-0.37" /><path
         id="path312"
         style="fill:#746968;fill-opacity:1;fill-rule:nonzero;stroke:none"
         d="m 2191.84,1744.95 c -17.36,0 -25.68,1.78 -25.68,13.18 0,37.45 -3.77,55.08 12.82,55.08 11.71,0 21.49,0.37 29.39,0.37 17.36,0 25.68,-1.79 25.68,-13.19 0,-37.46 3.78,-55.07 -12.81,-55.07 -11.72,0 -21.5,-0.37 -29.4,-0.37" /><path
         id="path314"
         style="fill:#746968;fill-opacity:1;fill-rule:nonzero;stroke:none"
         d="m 2128.98,1984.92 h -42.27 c -7.08,0 -12.82,5.73 -12.82,12.81 V 2040 c 0,7.07 5.74,12.81 12.82,12.81 h 42.27 c 7.07,0 12.81,-5.74 12.81,-12.81 v -42.27 c 0,-7.08 -5.74,-12.81 -12.81,-12.81" /><path
         id="path316"
         style="fill:#746968;fill-opacity:1;fill-rule:nonzero;stroke:none"
         d="m 2221.24,1984.92 h -42.26 c -7.07,0 -12.82,5.73 -12.82,12.81 V 2040 c 0,7.07 5.75,12.81 12.82,12.81 h 42.26 c 7.08,0 12.81,-5.74 12.81,-12.81 v -42.27 c 0,-7.08 -5.73,-12.81 -12.81,-12.81" /><path
         id="path318"
         style="fill:#746968;fill-opacity:1;fill-rule:nonzero;stroke:none"
         d="m 3104.41,1204.59 c -30.74,0 -39.91,2.31 -39.91,17.03 0,28.63 -4.24,51.34 16.56,51.34 24.23,0 42.79,0.49 56.84,0.49 30.74,0 39.9,-2.31 39.9,-17.04 0,-28.62 4.25,-51.34 -16.55,-51.34 -24.23,0 -42.79,-0.48 -56.84,-0.48" /><path
         id="path320"
         style="fill:#ffffff;fill-opacity:1;fill-rule:nonzero;stroke:none"
         d="m 1664.55,1006.31 c -221.99,14.26 -385.74,7.35 -501.91,0.45 -179.769,-10.69 -245.577,-21.369 -236.894,46.37 4.594,35.83 9.133,83.85 9.133,133.63 0,75.31 63.973,135.18 139.151,130.75 208.91,-12.3 366.34,-5.92 479.94,0.47 185.91,10.44 254.45,20.88 239.24,-50.55 -12.21,-57.34 -21.46,-112.54 -21.04,-160.35 0.52,-58.3 -49.44,-104.51 -107.62,-100.77" /><path
         id="path322"
         style="fill:#eee4d9;fill-opacity:1;fill-rule:nonzero;stroke:none"
         d="m 1066.09,1312.08 c -32.14,0 -62.49,-12.05 -86.164,-34.37 -25.395,-23.95 -39.379,-56.24 -39.379,-90.95 0,-51.82 -4.992,-101.67 -9.18,-134.35 -1.976,-15.43 0.149,-25.86 6.688,-32.85 18.781,-20.029 79.115,-16.23 179.055,-9.94 117.46,7.41 294.98,18.58 547.8,2.35 26.51,-1.74 52.78,7.8 72.1,26.08 19.25,18.21 29.73,42.72 29.5,68.99 -0.46,52.95 11.07,114.17 21.16,161.56 3.55,16.68 2.24,27.9 -4.14,35.31 -17.95,20.89 -80.97,17.15 -185.38,10.97 -114.24,-6.77 -286.87,-17.02 -524.45,-3.02 -2.55,0.15 -5.09,0.22 -7.61,0.22 m -58.33,-318.908 c -40.295,0 -64.803,4.598 -77.975,18.648 -9.027,9.63 -12.097,22.99 -9.656,42.02 4.144,32.37 9.086,81.69 9.086,132.92 0,37.86 15.25,73.09 42.933,99.19 27.434,25.87 64.692,39.39 102.212,37.22 236.92,-13.94 409.15,-3.73 523.11,3.02 115.21,6.83 173.04,10.26 194.65,-14.9 8.87,-10.31 10.98,-24.63 6.63,-45.05 -9.97,-46.84 -21.37,-107.24 -20.91,-159.11 0.25,-29.45 -11.48,-56.91 -33.05,-77.32 -21.59,-20.43 -51.03,-31.029 -80.6,-29.15 -252.12,16.2 -429.19,5.03 -546.37,-2.351 -45.54,-2.868 -81.71,-5.137 -110.06,-5.137" /><path
         id="path324"
         style="fill:#444244;fill-opacity:1;fill-rule:nonzero;stroke:none"
         d="m 1430.79,1125.18 c -4.27,-2.21 -13.68,-4.41 -25.6,-4.41 -31.49,0 -50.62,19.71 -50.62,49.87 0,32.66 22.66,52.39 52.97,52.39 11.91,0 20.45,-2.51 24.13,-4.42 l -3.98,-14.42 c -4.7,2.06 -11.18,3.82 -19.42,3.82 -20.15,0 -34.72,-12.64 -34.72,-36.48 0,-21.78 12.8,-35.75 34.58,-35.75 7.36,0 15,1.47 19.71,3.67 l 2.95,-14.27" /><path
         id="path326"
         style="fill:#444244;fill-opacity:1;fill-rule:nonzero;stroke:none"
         d="m 1480.49,1161.08 2.51,18.69 h -14.28 l -2.5,-18.69 z m -31.04,-38.84 3.83,27.36 h -12.07 v 11.48 h 13.83 l 2.65,18.69 h -12.66 v 11.33 h 14.28 l 3.82,26.77 h 11.04 l -3.68,-26.77 h 14.27 l 3.83,26.77 h 11.04 l -3.69,-26.77 h 11.92 v -11.33 h -13.68 l -2.5,-18.69 h 12.36 v -11.33 h -14.28 l -3.67,-27.51 h -11.34 l 3.83,27.51 h -14.12 l -3.83,-27.51 h -11.18" /><path
         id="path328"
         style="fill:#de8e61;fill-opacity:1;fill-rule:nonzero;stroke:none"
         d="m 1130.36,1182.19 c -65.24,0 -68.57,2.66 -68.57,17.88 0,17.31 -3.51,40.08 17.12,40.08 79.26,0 131.87,0.76 166.76,0.76 65.24,0 68.57,-2.65 68.57,-17.88 0,-17.3 3.51,-40.08 -17.13,-40.08 -79.25,0 -131.86,-0.76 -166.75,-0.76" /><path
         id="path330"
         style="fill:#b1cce0;fill-opacity:1;fill-rule:nonzero;stroke:none"
         d="m 1130.36,1090.72 c -65.24,0 -68.57,2.65 -68.57,17.88 0,17.3 -3.51,40.08 17.12,40.08 79.24,0 131.84,0.75 166.73,0.75 65.25,0 68.6,-2.65 68.6,-17.88 0,-17.3 3.51,-40.07 -17.13,-40.07 -79.25,0 -131.86,-0.76 -166.75,-0.76" /><path
         id="path332"
         style="fill:#746968;fill-opacity:1;fill-rule:nonzero;stroke:none"
         d="m 1607.14,1138.75 c -30.74,0 -39.91,2.31 -39.91,17.04 0,28.62 -4.25,51.33 16.56,51.33 24.23,0 42.79,0.49 56.84,0.49 30.74,0 39.9,-2.31 39.9,-17.04 0,-28.62 4.26,-51.34 -16.55,-51.34 -24.24,0 -42.79,-0.48 -56.84,-0.48" /><path
         id="path334"
         style="fill:#746968;fill-opacity:1;fill-rule:nonzero;stroke:none"
         d="m 1011.92,1182.62 c -17.807,0 -25.018,1.63 -25.018,12.1 0,29.12 -3.3,45.43 11.762,45.43 12.766,0 23.036,0.34 31.116,0.34 17.8,0 25.02,-1.64 25.02,-12.11 0,-29.12 3.29,-45.43 -11.77,-45.43 -12.76,0 -23.03,-0.33 -31.11,-0.33" /><path
         id="path336"
         style="fill:#746968;fill-opacity:1;fill-rule:nonzero;stroke:none"
         d="m 1011.92,1091.14 c -17.807,0 -25.018,1.64 -25.018,12.11 0,29.12 -3.3,45.43 11.762,45.43 12.766,0 23.036,0.33 31.116,0.33 17.8,0 25.02,-1.63 25.02,-12.1 0,-29.12 3.29,-45.43 -11.77,-45.43 -12.76,0 -23.03,-0.34 -31.11,-0.34" /><path
         id="path338"
         style="fill:#e0dfea;fill-opacity:1;fill-rule:nonzero;stroke:none"
         d="m 1988.18,0 c -273.42,0 -546.81,35.8203 -546.81,107.48 0,71.641 273.38,107.469 546.74,107.469 273.42,0 546.82,-35.828 546.82,-107.469 C 2534.93,35.832 2261.54,0 1988.18,0" /><path
         id="path340"
         style="fill:#ffa887;fill-opacity:1;fill-rule:nonzero;stroke:none"
         d="m 1910.44,2492.04 c 0.78,-63.8 21.92,-111.12 -95.44,-166.34 69.86,-96.11 138.65,-131.62 138.65,-131.62 0,0 147.18,66.26 197.75,110.09 -62.22,45.27 -107.43,50.71 -106.28,111.4 0.28,14.58 -0.4,74.14 -0.79,75.29 l -133.89,1.18" /><path
         id="path342"
         style="fill:#ffa887;fill-opacity:1;fill-rule:nonzero;stroke:none"
         d="m 2024.24,2469.7 c 33.32,9.13 91.02,102.53 77.05,225.5 -9.68,85.23 -187.46,152.17 -213.13,0.8 -11.99,-86.66 -81.63,-88.23 -19.27,-114.32 0,0 -14.63,-77.6 48.45,-100.96 -20.46,8.3 52.77,-25.85 106.9,-11.02" /><path
         id="path344"
         style="fill:#fca685;fill-opacity:1;fill-rule:nonzero;stroke:none"
         d="m 1720.7,219.148 c 21.42,-16.488 54.4,-12.789 84.61,4.633 l 30.8,148.387 -113.28,-2.699 -2.13,-150.321" /><path
         id="path346"
         style="fill:#fca685;fill-opacity:1;fill-rule:nonzero;stroke:none"
         d="m 2273.37,219.148 c -21.42,-16.488 -54.4,-12.789 -84.62,4.633 l -30.79,148.387 113.27,-2.699 2.14,-150.321" /><path
         id="path348"
         style="fill:#3b314a;fill-opacity:1;fill-rule:nonzero;stroke:none"
         d="m 2193.37,1704.37 c 103.17,-407.72 119.64,-1426.729 98.51,-1431.768 -13.4,-3.204 -122.79,-22.622 -127.53,-0.84 -109.39,501.207 -188.41,985.828 -188.41,985.828 -45.01,-499.61 -124.66,-986.57 -154.46,-990.649 -26.88,-3.671 -121.26,6.399 -122.72,27.149 -7.79,110.578 -23.86,1181.4 44.77,1415.22 l 449.84,-4.94" /><path
         id="path350"
         style="fill:#617690;fill-opacity:1;fill-rule:nonzero;stroke:none"
         d="m 1975.14,1280.16 3.6,-22.12 c 0.79,-4.84 80.26,-490.27 188.37,-985.661 0.27,-1.27 1.19,-2.379 2.81,-3.391 18.7,-11.75 102.8,2.121 120.6,6.203 8.52,15.778 10.36,260.008 -4.6,572.481 -10.55,220.158 -36.86,623.218 -94.77,853.888 l -445.5,4.9 C 1678.63,1471.62 1693,416.18 1701.58,294.289 c 0.13,-1.687 1.32,-3.457 3.56,-5.277 18.05,-14.66 91.81,-22.571 115.96,-19.274 7.76,1.063 31.05,66.953 69.11,307.153 31.76,200.488 61.99,448.689 82.91,680.959 z M 2199.53,258.738 c -14.24,0 -26.29,1.473 -32.62,5.453 -2.93,1.84 -4.72,4.18 -5.34,6.981 -95.14,435.957 -168.1,864.198 -184.81,964.178 -20.84,-225.98 -50.17,-465.061 -80.96,-659.362 -22.29,-140.687 -53.22,-309.019 -73.94,-311.859 -22.78,-3.117 -99.88,3.891 -120.29,20.48 -3.51,2.852 -5.4,5.969 -5.63,9.282 -8.62,122.359 -22.99,1184.979 44.87,1416.219 l 0.6,2.05 2.15,-0.02 452.02,-4.97 0.54,-2.11 c 58.24,-230.18 84.72,-634.2 95.33,-854.529 14.68,-305.062 14.06,-561.519 3.73,-578.59 -0.7,-1.14 -1.58,-1.839 -2.64,-2.089 -8.27,-1.981 -57.47,-11.114 -93.01,-11.114" /><path
         id="path352"
         style="fill:#3b314a;fill-opacity:1;fill-rule:nonzero;stroke:none"
         d="m 2091.52,1633.33 c 2.12,0 1.29,81.86 1.29,79.93 0,2.25 -15.28,1.3 -13.28,1.3 -2.13,0 -1.3,-81.84 -1.3,-79.92 0,-2.25 15.3,-1.31 13.29,-1.31" /><path
         id="path354"
         style="fill:#3b314a;fill-opacity:1;fill-rule:nonzero;stroke:none"
         d="m 1828.52,1638.97 c 2.13,0 1.31,81.84 1.31,79.92 0,2.26 -15.3,1.31 -13.29,1.31 -2.13,0 -1.3,-81.86 -1.3,-79.93 0,-2.25 15.29,-1.3 13.28,-1.3" /><path
         id="path356"
         style="fill:#fffff8;fill-opacity:1;fill-rule:nonzero;stroke:none"
         d="m 2051.83,2391.85 c -49.89,-28.01 -112.5,-25.96 -152.59,-5.76 -92.15,-28.08 -183.26,-43.36 -181.32,-134.24 4.03,-188.83 -9.06,-532.93 25.61,-542.54 157.3,-43.59 443.18,-30 467.27,0 32.67,40.66 19.9,304.56 7.91,474.17 -6.65,94.17 -69.56,179.75 -166.88,208.37" /><path
         id="path358"
         style="fill:#efe5da;fill-opacity:1;fill-rule:nonzero;stroke:none"
         d="m 1898.99,2383.05 c -9.66,-2.93 -19.3,-5.73 -28.81,-8.49 -81.09,-23.51 -151.11,-43.81 -149.43,-122.65 1.07,-49.73 0.95,-109.35 0.81,-172.48 -0.33,-160.78 -0.74,-360.88 22.72,-367.39 160.4,-44.46 442.44,-28.2 464.32,-0.95 24.09,29.99 26.68,197.68 7.29,472.19 -6.87,97.23 -71.08,177.77 -163.73,205.52 -53.49,-29.49 -116.48,-23.76 -153.17,-5.75 z M 2002,1678.56 c -88.78,0 -187.66,8.18 -259.23,28.03 -25.7,7.12 -27.32,152.25 -26.87,372.85 0.13,63.09 0.25,122.69 -0.81,172.35 -1.77,83.19 73.65,105.06 153.51,128.21 9.85,2.86 19.82,5.76 29.81,8.8 l 1.09,0.33 1.01,-0.51 c 35.49,-17.87 97.53,-23.72 149.92,5.71 l 1.05,0.58 1.14,-0.34 c 94.08,-27.66 161.96,-112.42 168.92,-210.89 13.78,-195.21 23.5,-436.27 -8.53,-476.15 -13.96,-17.37 -105.32,-28.97 -211.01,-28.97" /><path
         id="path360"
         style="fill:#30323e;fill-opacity:1;fill-rule:nonzero;stroke:none"
         d="m 2117.8,2426.62 c -16.59,0 -39.97,3.35 -72.48,10.11 -1.53,0.31 -2.52,1.82 -2.19,3.35 0.31,1.54 1.83,2.51 3.35,2.19 59.1,-12.28 87.33,-13.24 97.52,-3.35 8.13,7.9 5.23,24.14 1.23,46.6 -4.31,24.09 -10.2,57.08 -4.31,95.49 19.27,125.74 -41,174.62 -78.63,192.56 -54.27,25.88 -120.3,17.16 -143.07,-7.9 -1.05,-1.15 -2.85,-1.24 -4,-0.19 -1.17,1.05 -1.25,2.84 -0.19,4 24.12,26.53 93.27,36.11 149.69,9.21 39.06,-18.63 101.62,-69.18 81.81,-198.54 -5.75,-37.48 -0.2,-68.62 4.27,-93.63 4.32,-24.19 7.43,-41.66 -2.86,-51.66 -5.63,-5.49 -15.1,-8.24 -30.14,-8.24" /><path
         id="path362"
         style="fill:#30323e;fill-opacity:1;fill-rule:nonzero;stroke:none"
         d="m 1978.28,2469.65 -1.44,0.4 c -40.98,24.29 -44.21,75.74 -46.34,109.79 -0.7,11.26 -1.31,20.98 -3.15,26.51 -6.56,19.67 -24.62,32.47 -42.09,44.85 -12.94,9.19 -25.17,17.85 -31.11,28.62 -7.68,13.91 -9.22,39.89 3.03,60.65 8.07,13.66 25.01,29.94 59.94,29.94 1.57,0 2.83,-1.27 2.83,-2.83 0,-1.57 -1.26,-2.83 -2.83,-2.83 -32.25,0 -47.74,-14.77 -55.05,-27.16 -11.19,-18.94 -9.88,-42.49 -2.97,-55.03 5.33,-9.63 17.04,-17.94 29.44,-26.73 17.37,-12.31 37.04,-26.27 44.18,-47.69 2.08,-6.23 2.68,-15.81 3.44,-27.95 2.05,-32.85 5.17,-82.51 43.57,-105.26 1.35,-0.8 1.8,-2.54 0.98,-3.89 -0.51,-0.89 -1.46,-1.39 -2.43,-1.39" /><path
         id="path364"
         style="fill:#30323e;fill-opacity:1;fill-rule:nonzero;stroke:none"
         d="m 1934.04,2781.76 c 76.81,27.23 172.95,-19.05 190.34,-79.2 13.38,-46.29 29.58,-226.97 -29.18,-189.86 -63.7,40.24 -100.01,147.84 -141.86,206.51 -7.3,10.24 -71.48,44.05 -19.3,62.55" /><path
         id="path366"
         style="fill:#30323e;fill-opacity:1;fill-rule:nonzero;stroke:none"
         d="m 2004.98,2735.16 c 30.58,-28.8 25.16,-44.29 33.43,-71.96 19.54,-65.38 99.84,-90.32 104.35,-195.25 1.32,-31.04 -13.87,-38.06 -42.7,-31.58 -116.38,26.15 -159.47,18.29 -157.35,102.1 2.87,113.82 -29.92,95.39 -65.36,130.8 -57.9,57.84 32.08,155.89 127.63,65.89" /><path
         id="path368"
         style="fill:#353b4a;fill-opacity:1;fill-rule:nonzero;stroke:none"
         d="m 1917.12,2672.4 -1.74,0.6 c -30.89,23.95 -32.37,44.17 -28.17,56.93 4.71,14.26 18.76,24.08 28.92,24.32 1.66,0.02 2.87,-1.21 2.91,-2.77 0.03,-1.57 -1.21,-2.86 -2.77,-2.9 -7.13,-0.16 -19.57,-8.01 -23.67,-20.43 -3.63,-11.02 -2.03,-28.75 26.26,-50.67 1.23,-0.96 1.46,-2.75 0.5,-3.98 l -2.24,-1.1" /><path
         id="path370"
         style="fill:#353b4a;fill-opacity:1;fill-rule:nonzero;stroke:none"
         d="m 2080.99,2736.54 -1.95,0.77 c -51.63,48.71 -99.66,40.14 -135.75,27.24 -1.48,-0.53 -3.09,0.24 -3.62,1.72 -0.52,1.47 0.24,3.09 1.72,3.61 34.67,12.39 87.08,22.94 141.54,-28.45 1.13,-1.07 1.19,-2.87 0.12,-4 l -2.06,-0.89" /><path
         id="path372"
         style="fill:#353b4a;fill-opacity:1;fill-rule:nonzero;stroke:none"
         d="m 1952.07,2697.48 c -1.66,0.05 -2.88,1.36 -2.83,2.92 0.66,21.46 -8.05,43.29 -23.31,58.38 -1.11,1.1 -1.12,2.9 -0.02,4.01 1.09,1.12 2.89,1.12 4,0.02 16.37,-16.17 25.71,-39.58 24.99,-62.59 -0.04,-1.53 -1.3,-2.74 -2.83,-2.74" /><path
         id="path374"
         style="fill:#353b4a;fill-opacity:1;fill-rule:nonzero;stroke:none"
         d="m 2025.42,2727.72 -1.65,0.53 c -27.43,19.52 -44.56,21.98 -70.49,10.1 -1.4,-0.64 -3.09,-0.03 -3.75,1.4 -0.64,1.42 -0.02,3.1 1.4,3.75 27.81,12.77 47.03,10.07 76.13,-10.64 1.27,-0.91 1.57,-2.68 0.67,-3.95 l -2.31,-1.19" /><path
         id="path376"
         style="fill:#353b4a;fill-opacity:1;fill-rule:nonzero;stroke:none"
         d="m 2029.11,2540.26 -0.92,0.16 c -1.48,0.51 -2.26,2.12 -1.75,3.6 17.69,51.32 17.85,92.68 0.49,122.94 -19.38,33.75 -53.53,40.9 -54.97,41.18 -1.53,0.31 -2.52,1.8 -2.22,3.33 0.3,1.54 1.81,2.54 3.33,2.23 1.54,-0.31 38.12,-7.96 58.77,-43.93 18.21,-31.73 18.2,-74.66 -0.05,-127.6 -0.4,-1.17 -1.5,-1.91 -2.68,-1.91" /><path
         id="path378"
         style="fill:#353b4a;fill-opacity:1;fill-rule:nonzero;stroke:none"
         d="m 2110,2543.53 -2.21,1.07 c -33.96,42.85 -23,80.03 -14.2,109.91 5.91,20.08 11.02,37.42 1.13,51.51 -0.9,1.28 -0.59,3.05 0.69,3.95 1.27,0.9 3.04,0.59 3.95,-0.69 11.46,-16.33 5.99,-34.89 -0.33,-56.38 -8.88,-30.1 -18.93,-64.23 13.19,-104.78 0.98,-1.22 0.77,-3 -0.46,-3.98 l -1.76,-0.61" /><path
         id="path380"
         style="fill:#353b4a;fill-opacity:1;fill-rule:nonzero;stroke:none"
         d="m 2058.53,2476.71 -0.78,0.12 -43.64,12.63 c -45.2,13.08 -42.22,33.01 -38.77,56.08 3.32,22.14 7.45,49.71 -28.1,83.76 -1.12,1.09 -1.16,2.88 -0.09,4.01 1.09,1.13 2.88,1.17 4,0.09 37.69,-36.09 33.31,-65.26 29.8,-88.7 -3.44,-22.94 -5.71,-38.09 34.73,-49.8 l 43.64,-12.63 c 1.5,-0.44 2.36,-2.01 1.93,-3.51 -0.36,-1.24 -1.49,-2.05 -2.72,-2.05" /><path
         id="path382"
         style="fill:#353b4a;fill-opacity:1;fill-rule:nonzero;stroke:none"
         d="m 2109.39,2441.13 c -5.3,0 -11.01,0.55 -16.78,1.27 -1.54,0.2 -2.65,1.61 -2.45,3.16 0.19,1.56 1.63,2.64 3.16,2.46 13.3,-1.67 29.22,-2.66 34.11,4.57 3.49,5.14 1.4,14.95 -6.01,28.37 -0.76,1.37 -0.27,3.09 1.1,3.85 1.38,0.75 3.1,0.26 3.85,-1.11 8.77,-15.85 10.64,-27.07 5.76,-34.29 -4.3,-6.33 -12.75,-8.28 -22.74,-8.28" /><path
         id="path384"
         style="fill:#353b4a;fill-opacity:1;fill-rule:nonzero;stroke:none"
         d="m 2085.87,2498.61 c -1.51,0 -2.77,1.19 -2.83,2.72 -0.07,1.56 1.14,2.88 2.71,2.95 14.76,0.61 28.81,9.43 35.8,22.45 0.75,1.38 2.48,1.89 3.83,1.16 1.39,-0.74 1.91,-2.46 1.16,-3.83 -7.91,-14.76 -23.83,-24.75 -40.55,-25.44 l -0.12,-0.01" /><path
         id="path386"
         style="fill:#617690;fill-opacity:1;fill-rule:nonzero;stroke:none"
         d="m 1861.47,1440.13 c 5.04,-16.57 18.36,-29.32 35.15,-33.57 273.08,-69.2 544.71,-30.94 463.1,79.14 -98.05,132.25 -58.22,373.09 -80.63,517.66 -52.65,339.71 -226.42,398.07 -226.42,398.07 -66,-102.67 -182.37,-24.45 -182.37,-24.45 -43.86,-13.48 -155.68,-50.88 -155.68,-50.88 -53.62,-204.1 108.1,-758.49 146.85,-885.97" /><path
         id="path388"
         style="fill:#3b314a;fill-opacity:1;fill-rule:nonzero;stroke:none"
         d="m 1864.18,1440.96 c 4.72,-15.55 17.42,-27.67 33.14,-31.66 207.48,-52.58 426.02,-44.15 467.69,18.01 10.86,16.21 8.31,35.28 -7.57,56.71 -67.83,91.49 -70.2,234.76 -72.29,361.17 -0.96,57.9 -1.86,112.59 -8.86,157.74 -48.67,314.03 -202.99,387.01 -222.51,395.03 -18.16,-27.37 -41.65,-44.2 -69.83,-50.03 -53.36,-11.03 -105.53,20.47 -114.09,25.95 -41.39,-12.78 -139.72,-45.58 -152.89,-49.98 -52.65,-206.16 113.32,-771.47 147.21,-882.94 z m 297.09,-71.58 c -80.15,0 -173.88,11.25 -265.35,34.43 -17.62,4.47 -31.87,18.07 -37.16,35.5 -34.04,111.99 -201.1,681.11 -146.88,887.51 l 0.38,1.48 1.46,0.48 c 1.12,0.38 112.36,37.57 155.74,50.91 l 1.3,0.39 1.11,-0.75 c 0.57,-0.38 56.23,-37.2 110.96,-25.84 27.28,5.64 49.97,22.29 67.46,49.47 l 1.19,1.86 2.09,-0.7 c 1.75,-0.59 176.01,-62.82 228.32,-400.32 7.06,-45.54 7.97,-100.42 8.92,-158.52 2.08,-125.55 4.43,-267.85 71.18,-357.89 17.46,-23.56 20.06,-44.83 7.72,-63.24 -24.14,-36.02 -104.98,-54.77 -208.44,-54.77" /><path
         id="path390"
         style="fill:#3b314a;fill-opacity:1;fill-rule:nonzero;stroke:none"
         d="m 2235.54,1372.68 -2.13,0.96 c -97.55,110.63 -94.51,230.96 -91,370.28 4.19,166.25 9.41,373.14 -160.33,635.55 -0.84,1.32 -0.47,3.07 0.84,3.92 1.31,0.84 3.07,0.48 3.93,-0.84 170.68,-263.88 165.44,-471.75 161.23,-638.78 -3.49,-138.12 -6.5,-257.42 89.58,-366.38 1.03,-1.18 0.93,-2.97 -0.25,-4 l -1.87,-0.71" /><path
         id="path392"
         style="fill:#3b314a;fill-opacity:1;fill-rule:nonzero;stroke:none"
         d="m 2294.27,1382.83 -2.26,1.11 c -65.38,86.16 -76.82,149.84 -84.39,191.98 -7.88,43.89 -11.48,63.92 -63.69,68.1 -1.56,0.11 -2.73,1.48 -2.6,3.04 0.13,1.57 1.52,2.7 3.05,2.6 56.57,-4.52 60.91,-28.75 68.82,-72.74 7.48,-41.6 18.76,-104.47 83.33,-189.55 0.94,-1.25 0.7,-3.03 -0.55,-3.98 l -1.71,-0.56" /><path
         id="path394"
         style="fill:#383b4f;fill-opacity:1;fill-rule:nonzero;stroke:none"
         d="m 2034.8,2448.76 c 6.71,4.13 15.23,3 18.61,-4.12 18.09,-38.02 32.24,-66.21 -26.95,-89.89 -117.67,-47.08 -99.42,-29.83 -156.16,22.23 17.12,5.46 50.12,1.5 164.5,71.78" /><path
         id="path396"
         style="fill:#424459;fill-opacity:1;fill-rule:nonzero;stroke:none"
         d="m 1876.01,2375.53 c 8.2,-7.74 14.67,-14.55 20.46,-20.67 29.89,-31.53 33.75,-35.56 128.93,2.52 21.71,8.68 34.44,18.45 38.9,29.86 5.99,15.33 -2.76,33.72 -12.89,55.01 l -0.55,1.18 c -1.08,2.26 -2.87,3.82 -5.18,4.5 -2.89,0.85 -6.4,0.26 -9.4,-1.58 -94.81,-58.26 -133.74,-65.7 -154.65,-69.71 -2.07,-0.39 -3.93,-0.75 -5.62,-1.11 z m 60.99,-51.02 c -18.27,0 -28.32,9.24 -44.64,26.46 -6.6,6.95 -14.08,14.84 -23.98,23.92 l -3.6,3.31 4.66,1.48 c 3.16,1 6.67,1.68 11.13,2.53 20.55,3.94 58.82,11.26 152.74,68.96 4.42,2.72 9.5,3.5 13.98,2.19 3.83,-1.13 6.92,-3.8 8.68,-7.5 l 0.56,-1.17 c 10.7,-22.48 19.94,-41.9 13.05,-59.51 -5.14,-13.13 -18.5,-23.63 -42.08,-33.07 -46.97,-18.79 -72.65,-27.6 -90.5,-27.6" /><path
         id="path398"
         style="fill:#ef7957;fill-opacity:1;fill-rule:nonzero;stroke:none"
         d="m 940.129,1996.54 c -34.18,-14.63 25.371,-44.33 113.121,-1.79 -14.91,7.94 -24.98,4.14 -40.07,2.28 -28.063,-3.45 -61.254,4.56 -73.051,-0.49" /><path
         id="path400"
         style="fill:#f39f84;fill-opacity:1;fill-rule:nonzero;stroke:none"
         d="m 854.891,1896.87 c -4.188,-2.4 -10.891,0.19 -12.551,4.73 -5.379,14.67 74.648,50.11 154.137,50.08 -43.145,-19.82 -102.024,-32.15 -141.586,-54.81" /><path
         id="path402"
         style="fill:#ffa887;fill-opacity:1;fill-rule:nonzero;stroke:none"
         d="m 1102.05,2015.6 107.82,-27.32 -42.99,-97.03 -73.84,57.61 c -14.32,10.89 -1.06,8.76 -233.204,-26.25 -14.106,-2.13 -18.473,7.75 -6.199,13.6 21.801,10.41 56.527,21.78 80.437,18.33 -15.98,3.14 -58.941,-5.88 -58.047,6.31 0.977,13.3 71.286,11.67 93.735,17.47 26.492,6.86 93.238,55.25 132.288,37.28" /><path
         id="path404"
         style="fill:#617690;fill-opacity:1;fill-rule:nonzero;stroke:none"
         d="m 1449.96,1917.72 -298.14,104.95 c -17.85,6.28 -44.79,-73.06 -50.56,-99.21 -6.8,-30.75 369.99,-244.5 442.61,-228.63 84.65,18.49 188.33,249.61 233.14,328.73 30.8,54.41 37.71,333.36 -62.39,302.54 -27.92,-8.6 -195.93,-320.63 -237.25,-397.76 -5.27,-9.83 -16.89,-14.32 -27.41,-10.62" /><path
         id="path406"
         style="fill:#3b314a;fill-opacity:1;fill-rule:nonzero;stroke:none"
         d="m 1149.76,2020.19 c -0.83,0 -1.73,-0.28 -2.73,-0.84 -16.06,-8.93 -37.7,-72.49 -43,-96.5 -0.08,-0.31 -0.42,-3.24 8.03,-11.71 52.38,-52.5 366.46,-227.73 431.21,-213.54 68.06,14.86 151.68,175.63 201.65,271.68 11.54,22.18 21.51,41.34 29.62,55.68 24.42,43.12 32.13,227.3 -13.18,283.67 -12.36,15.36 -27.8,20.34 -45.91,14.76 -17.42,-5.36 -105.49,-153.54 -235.58,-396.39 -5.96,-11.12 -18.94,-16.15 -30.85,-11.95 L 1150.88,2020 Z m 385.27,-329.02 c -83.72,-0.01 -375.02,163.89 -426.98,215.97 -7.43,7.44 -10.47,12.82 -9.56,16.93 5.19,23.48 27.13,89.86 45.79,100.24 2.93,1.63 5.79,1.98 8.48,1.04 L 1450.9,1920.4 c 9.26,-3.26 19.35,0.64 23.97,9.28 78.01,145.6 212.77,391.08 238.91,399.13 20.54,6.31 38.04,0.73 52,-16.63 47.53,-59.13 39.31,-244.77 13.7,-290.01 -8.07,-14.25 -18.02,-33.37 -29.54,-55.51 -53.68,-103.2 -134.81,-259.17 -205.46,-274.6 -2.76,-0.6 -5.93,-0.89 -9.45,-0.89" /><path
         id="path408"
         style="fill:#514342;fill-opacity:1;fill-rule:nonzero;stroke:none"
         d="m 2161.24,129.539 c -2.92,-50.8906 67.44,-55.8906 124.12,-45.1796 24.85,4.6914 40.31,29.4926 33.33,53.8006 -13.48,46.981 -37.88,107.66 -73.58,111.531 -91.25,9.891 -79.57,-45.421 -83.87,-120.152" /><path
         id="path410"
         style="fill:#463c3a;fill-opacity:1;fill-rule:nonzero;stroke:none"
         d="m 2225.35,248.281 c -18.78,0 -32.11,-3.871 -41.25,-11.812 -17.15,-14.918 -18.03,-43.391 -19.16,-79.418 -0.28,-8.84 -0.56,-18.09 -1.12,-27.66 -0.72,-12.629 3.33,-22.903 12.04,-30.5629 22.47,-19.7383 71.06,-19.1093 109.02,-11.9297 11.2,2.1133 21.02,8.8516 26.96,18.4806 5.96,9.699 7.53,21.082 4.37,32.07 -11.28,39.289 -35.56,105.801 -71.37,109.672 -7.07,0.758 -13.55,1.16 -19.49,1.16 z M 2238.3,77.1914 c -26.14,0 -51.07,4.7774 -65.85,17.7578 -9.97,8.7618 -14.61,20.4418 -13.79,34.7418 0.55,9.508 0.83,18.719 1.12,27.508 1.16,37.313 2.08,66.762 20.93,83.172 13.2,11.457 33.75,15.231 64.67,11.891 36.89,-3.992 61.57,-63.871 75.79,-113.391 3.57,-12.391 1.81,-25.25 -4.93,-36.199 -6.7,-10.8712 -17.78,-18.4728 -30.39,-20.8517 C 2270.93,79 2254.39,77.1914 2238.3,77.1914" /><path
         id="path412"
         style="fill:#514342;fill-opacity:1;fill-rule:nonzero;stroke:none"
         d="m 1826.92,129.469 c 2.87,-50.8987 -67.5,-55.8284 -124.17,-45.0588 -24.84,4.7187 -40.28,29.5308 -33.28,53.8278 13.54,46.961 37.99,107.633 73.7,111.461 91.26,9.801 79.53,-45.508 83.75,-120.23" /><path
         id="path414"
         style="fill:#463c3a;fill-opacity:1;fill-rule:nonzero;stroke:none"
         d="m 1762.79,248.27 c -5.9,0 -12.33,-0.391 -19.34,-1.141 -35.83,-3.84 -60.17,-70.328 -71.49,-109.609 -3.16,-10.981 -1.63,-22.36 4.34,-32.071 5.92,-9.6404 15.74,-16.3787 26.93,-18.4998 37.97,-7.2187 86.55,-7.8984 109.04,11.8125 8.72,7.6483 12.78,17.9293 12.07,30.5583 -0.54,9.559 -0.83,18.821 -1.09,27.66 -1.09,36.032 -1.95,64.5 -19.09,79.442 -9.15,7.969 -22.53,11.848 -41.37,11.848 z M 1750.03,77.1914 c -16.16,0 -32.78,1.8281 -47.76,4.6797 -12.62,2.3906 -23.69,10 -30.37,20.8789 -6.74,10.961 -8.48,23.809 -4.91,36.199 14.27,49.512 39.02,109.36 75.9,113.321 30.94,3.332 51.49,-0.481 64.66,-11.961 18.84,-16.418 19.74,-45.879 20.86,-83.18 0.27,-8.797 0.55,-18 1.08,-27.527 0.81,-14.282 -3.83,-25.973 -13.81,-34.7114 -14.75,-12.9297 -39.59,-17.6992 -65.65,-17.6992" /><path
         id="path416"
         style="fill:#383b4f;fill-opacity:1;fill-rule:nonzero;stroke:none"
         d="m 1964.25,1656.6 -6.62,34.04 c -1.4,7.16 -148.21,-17.24 -145.57,-29.85 l 5.42,-25.93 c 1.39,-6.7 149.23,9.07 146.77,21.74" /><path
         id="path418"
         style="fill:#424459;fill-opacity:1;fill-rule:nonzero;stroke:none"
         d="m 1820.02,1636.54 c 15.53,-4.96 134.53,11.75 141.36,19.96 l -6.31,32.45 c -15.83,4.35 -133.95,-19.08 -140.16,-27.97 z m 9.2,-6.15 c -13.71,0 -14.14,2.08 -14.52,3.88 l -5.42,25.95 c -0.27,1.29 -0.1,3.26 2.24,5.33 14.16,12.55 132.2,33.22 146.05,28.53 2.12,-0.73 2.69,-2.12 2.84,-2.9 l 6.62,-34.05 c 0.93,-4.78 -4.17,-9.13 -32.08,-14.76 -19.77,-4 -48.28,-7.89 -74.39,-10.19 -14.69,-1.29 -24.62,-1.79 -31.34,-1.79" /></g></g></svg>