<svg viewBox="0 0 200 200" xmlns="http://www.w3.org/2000/svg">
  <path fill="#ff2e63" d="M38,-70.7C46.6,-60.9,49.1,-45.3,55.7,-32.6C62.4,-19.8,73.4,-9.9,73.8,0.3C74.3,10.4,64.3,20.9,55.5,30.1C46.8,39.3,39.3,47.3,30.3,57C21.3,66.8,10.6,78.3,-2.3,82.3C-15.3,86.3,-30.5,82.8,-37.5,71.9C-44.5,60.9,-43.3,42.6,-41.7,29.4C-40.1,16.2,-38.1,8.1,-40.3,-1.2C-42.4,-10.6,-48.6,-21.1,-50.8,-35.3C-53,-49.5,-51.1,-67.3,-41.9,-76.8C-32.8,-86.2,-16.4,-87.2,-0.8,-85.8C14.7,-84.3,29.5,-80.4,38,-70.7Z" transform="translate(100 100)" />
</svg>