<svg xmlns="http://www.w3.org/2000/svg" enable-background="new 0 0 32 32" viewBox="0 0 32 32"><path fill="#e3f8fa" d="m26 32h-20c-3.314 0-6-2.686-6-6v-20c0-3.314 2.686-6 6-6h20c3.314 0 6 2.686 6 6v20c0 3.314-2.686 6-6 6z"/><path fill="#26c6da" d="m22.667 8h-13.334c-.736 0-1.333.597-1.333 1.333v13.333c0 .737.597 1.334 1.333 1.334h13.333c.737 0 1.334-.597 1.334-1.333v-13.334c0-.736-.597-1.333-1.333-1.333zm-7.299 6.264c-.172.059-.344.107-.521.147.067.182.106.367.106.562 0 1.13-.688 1.996-1.785 2.202-.33.069-.521.209-.521.57 0 1.026 2.67.329 2.67 2.218 0 1.535-1.023 2.036-2.399 2.036-1.129 0-2.419-.383-2.419-1.762 0-.801.476-1.264 1.198-1.505v-.027c-.661-.407-.523-1.54-.027-1.762v-.027c-.669-.227-1.097-1.157-1.097-1.835h-.001c0-1.819 1.93-2.684 3.353-1.854.498 0 .987-.134 1.441-.316v1.353zm2.108 4.548h-1.468c.042-.485.047-5.438 0-5.834h1.468c-.048.391-.043 5.353 0 5.834zm-.73-6.859c-.524 0-.912-.461-.912-.97 0-.517.384-.983.912-.983.523 0 .894.482.894.983-.001.501-.384.97-.894.97zm4.754 6.686c-.351.195-.807.262-1.203.262-1.415 0-1.581-1.13-1.581-2.296v-2.349h.013v-.027c-.185 0-.193-.043-.635.027v-1.273h.635c0-.597.008-.83-.039-1.103h1.499c-.053.37-.039.737-.039 1.103h1.349v1.273s-.511-.027-1.349-.027v2.44c0 .397.087.879.577.879.259 0 .563-.075.774-.222v1.313z"/><path fill="#8ce1eb" d="M11.981 15.095c0 .557.246.905.828.905v.001c.574 0 .785-.375.785-.919 0-1.294-1.613-1.308-1.613.013zM11.84 20.169c0 .602.688.675 1.145.675.481 0 .997-.121.997-.705 0-.589-.64-.67-1.089-.67v.001c-.468 0-1.05.101-1.053.699z"/></svg>