<svg xmlns="http://www.w3.org/2000/svg" enable-background="new 0 0 32 32" viewBox="0 0 32 32"><path fill="#E3F8FA" d="M26,32H6c-3.314,0-6-2.686-6-6V6c0-3.314,2.686-6,6-6h20c3.314,0,6,2.686,6,6v20C32,29.314,29.314,32,26,32z"/><path fill="#26C6DA" d="M8,24H24V8H8V24z M21.19,20.419c-0.17-0.641-1.501-0.79-2.411-1.47c-0.92-0.62-1.139-2.12-0.379-2.981c0.26-0.32,0.689-0.56,1.14-0.67l0.47-0.059c0.91-0.021,1.469,0.219,1.889,0.689c0.121,0.119,0.211,0.24,0.391,0.52c-0.481,0.299-0.481,0.299-1.17,0.75c-0.151-0.32-0.391-0.52-0.651-0.6c-0.4-0.12-0.91,0.009-1.01,0.44c-0.039,0.13-0.03,0.25,0.031,0.47c0.162,0.37,0.707,0.53,1.198,0.76c1.41,0.572,1.885,1.185,2.002,1.915l-0.031-0.045c0.111,0.63-0.03,1.04-0.049,1.1c-0.521,1.78-3.421,1.84-4.581,0.669c-0.24-0.28-0.4-0.419-0.54-0.739l1.22-0.701c0.33,0.5,0.629,0.771,1.17,0.891C20.61,21.449,21.35,21.199,21.19,20.419z M13.422,20.651c0.011,0,0.043,0.061,0.085,0.131c0.155,0.259,0.289,0.439,0.553,0.57c0.257,0.081,0.824,0.139,1.044-0.32c0.134-0.232,0.092-0.986,0.092-1.807c0-1.294,0.006-2.578,0.006-3.87h1.499l-0.003,0.037c0,1.38,0.008,2.75,0,4.119c0.003,0.851,0.075,1.611-0.265,2.231c-0.235,0.48-0.685,0.79-1.207,0.941c-0.802,0.18-1.568,0.07-2.138-0.27c-0.383-0.23-0.679-0.591-0.883-1.011L13.422,20.651z"/></svg>