<svg xmlns="http://www.w3.org/2000/svg" enable-background="new 0 0 32 32" viewBox="0 0 32 32"><path fill="#FFF9DD" d="M26,32H6c-3.314,0-6-2.686-6-6V6c0-3.314,2.686-6,6-6h20c3.314,0,6,2.686,6,6v20C32,29.314,29.314,32,26,32z"/><path fill="#FFD200" d="M14.276,22.018c-0.41,0.238-0.489,0.266-0.874,0.403c-0.094,0.032-0.235,0.089,0.054,0.254l1.933,1.159c0.185,0.108,0.398,0.165,0.608,0.165L15.997,24c0.213,0,0.422-0.058,0.608-0.165l5.788-3.384C22.768,20.228,23,19.818,23,19.38v-6.765c0-0.442-0.231-0.851-0.608-1.07l-5.788-3.388c-0.364-0.209-0.85-0.209-1.216,0l-5.781,3.384C9.232,11.761,9,12.173,9,12.611v6.765c0,0.442,0.231,0.851,0.608,1.07l1.517,0.886c0.733,0.368,0.996,0.368,1.332,0.368c1.087,0,1.714-0.666,1.714-1.829V13.19c0-0.095-0.078-0.168-0.169-0.168h-0.733c-0.094,0-0.169,0.072-0.169,0.168v6.679c0,0.518-0.527,1.029-1.389,0.594l-1.586-0.927c-0.056-0.028-0.091-0.092-0.091-0.156v-6.765c0-0.066,0.035-0.13,0.091-0.162l5.781-3.384c0.053-0.032,0.125-0.032,0.178,0l5.785,3.381c0.056,0.034,0.091,0.095,0.091,0.162v6.769c0,0.063-0.034,0.127-0.088,0.158l-5.788,3.384c-0.05,0.032-0.125,0.032-0.178,0l-1.486-0.892C14.376,22.003,14.32,21.992,14.276,22.018z"/><path fill="#FFE777" d="M17.783,18.313c-1.532,0-1.868-0.391-1.98-1.162c-0.013-0.083-0.082-0.143-0.166-0.143h-0.749c-0.094,0-0.166,0.076-0.166,0.168c0,0.987,0.529,2.165,3.064,2.165c1.83-0.003,2.883-0.736,2.883-2.013l-0.002,0.001c0-1.266-0.846-1.603-2.623-1.842c-1.799-0.241-1.98-0.365-1.98-0.79c0-0.352,0.154-0.822,1.485-0.822c1.188,0,1.626,0.26,1.808,1.073c0.015,0.076,0.085,0.133,0.163,0.133h0.752c0.047,0,0.091-0.019,0.122-0.054c0.031-0.035,0.047-0.083,0.044-0.13c-0.116-1.4-1.034-2.051-2.889-2.051c-1.651,0-2.635,0.705-2.635,1.889c0,1.283,0.981,1.638,2.563,1.797c1.896,0.188,2.043,0.47,2.043,0.848C19.522,18.034,19.002,18.313,17.783,18.313z"/></svg>