<svg xmlns="http://www.w3.org/2000/svg" enable-background="new 0 0 32 32" viewBox="0 0 32 32"><path fill="#FFF9DD" d="M26,32H6c-3.314,0-6-2.686-6-6V6c0-3.314,2.686-6,6-6h20c3.314,0,6,2.686,6,6v20C32,29.314,29.314,32,26,32z"/><path fill="#FFD200" d="M13.435,10.474c0.6-0.757,1.728-1.131,2.498-1.151c2.158-0.041,3.057,2.675,3.126,3.755l0.999,0.302c-0.23-3.311-2.267-5.048-4.215-5.048c-1.828,0-3.516,1.343-4.196,3.311c-0.929,2.625-0.319,5.148,0.819,7.167c-0.099,0.131-0.159,0.363-0.139,0.585c0.019,0.606,0.529,1.11,1.139,1.11h0.04c0.639-0.02,1.129-0.554,1.099-1.191c0-0.606-0.519-1.11-1.129-1.11h-0.041c-0.04,0-0.099,0-0.15,0.019c-0.829-1.413-1.179-2.928-1.048-4.562C12.316,12.432,12.716,11.362,13.435,10.474z"/><path fill="#FFE777" d="M8.621,21.932c0.669,1.009,2.038,1.655,3.537,1.655c0.399,0,0.819-0.03,1.229-0.131c2.598-0.505,4.565-2.079,5.694-4.401l0.009-0.021c0.579-0.051,1.029-0.566,0.999-1.182c-0.031-0.616-0.53-1.11-1.139-1.11h-0.041c-0.629,0.021-1.119,0.555-1.099,1.192c0.02,0.323,0.151,0.585,0.329,0.777c-0.699,1.373-1.748,2.382-3.336,3.231c-1.069,0.565-2.198,0.778-3.296,0.626c-0.919-0.131-1.638-0.546-2.078-1.211c-0.659-1.01-0.719-2.099-0.17-3.189c0.401-0.788,0.999-1.363,1.4-1.646c-0.1-0.262-0.22-0.706-0.28-1.039C7.421,17.622,7.722,20.549,8.621,21.932z"/><path fill="#FFD200" d="M23.644,21.486c0.599-1.211,0.549-3.25-0.979-4.996l-0.009,0.02c-1.548-1.837-3.826-2.846-6.424-2.846h-0.34c-0.169-0.373-0.558-0.606-0.998-0.606h-0.03c-0.629,0-1.119,0.546-1.098,1.181c0.02,0.605,0.529,1.11,1.139,1.11h0.049c0.45-0.02,0.839-0.303,0.999-0.707h0.37c1.54,0,2.997,0.454,4.326,1.342c1.018,0.676,1.748,1.564,2.158,2.625c0.359,0.868,0.339,1.716-0.03,2.423c-0.569,1.11-1.529,1.696-2.797,1.696c-0.799,0-1.578-0.253-1.978-0.434c-0.239,0.201-0.639,0.534-0.929,0.736c0.879,0.403,1.768,0.635,2.627,0.635C21.647,23.667,23.094,22.557,23.644,21.486z"/></svg>