<svg xmlns="http://www.w3.org/2000/svg" enable-background="new 0 0 32 32" viewBox="0 0 32 32"><path fill="#FFF9DD" d="M26,32H6c-3.314,0-6-2.686-6-6V6c0-3.314,2.686-6,6-6h20c3.314,0,6,2.686,6,6v20C32,29.314,29.314,32,26,32z"/><path fill="#FFD200" d="M8,16v8H24V8H8V16z M17.709,21.084c0.072-0.041,0.341-0.196,0.595-0.343l0.46-0.267l0.097,0.143c0.135,0.205,0.429,0.487,0.607,0.581c0.511,0.269,1.211,0.231,1.557-0.079c0.129-0.109,0.209-0.27,0.209-0.45c0-0.011,0-0.021-0.001-0.031v0.001c0-0.185-0.023-0.267-0.12-0.407c-0.124-0.177-0.378-0.327-1.099-0.64c-0.825-0.355-1.181-0.576-1.506-0.927c-0.196-0.223-0.347-0.491-0.435-0.785l-0.004-0.015c-0.061-0.226-0.076-0.793-0.028-1.021c0.17-0.798,0.772-1.353,1.641-1.519c0.282-0.053,0.937-0.033,1.214,0.035v0.001c0.407,0.101,0.716,0.282,1.001,0.577c0.147,0.157,0.366,0.444,0.383,0.513c0.005,0.02-0.691,0.487-1.112,0.749c-0.015,0.01-0.077-0.056-0.145-0.157c-0.207-0.3-0.422-0.429-0.752-0.452c-0.485-0.033-0.797,0.221-0.795,0.645c0,0.007-0.001,0.016-0.001,0.025c0,0.101,0.025,0.195,0.07,0.278l-0.001-0.003c0.107,0.221,0.305,0.353,0.927,0.622c1.146,0.493,1.636,0.818,1.941,1.28c0.34,0.515,0.417,1.339,0.185,1.951c-0.253,0.665-0.883,1.117-1.77,1.267c-0.274,0.049-0.924,0.041-1.219-0.012c-0.643-0.115-1.252-0.432-1.628-0.849c-0.147-0.162-0.435-0.587-0.417-0.617C17.569,21.167,17.635,21.127,17.709,21.084z M11.505,16.043c0-0.356,0.007-0.653,0.017-0.66c0.008-0.011,1.275-0.016,2.812-0.013l2.797,0.008l0.007,0.653l0.005,0.655H15.06v5.917h-1.473v-5.917h-2.081V16.043z"/></svg>